<svg xmlns="http://www.w3.org/2000/svg" viewBox="0 0 379.6 100.1"><path d="M23.11 13.6c.04-.37.07-.75.07-1.13 0-.21 0-.46-.02-.74 3.27-.05 6.13-2.4 6.13-5.11 0-1.38-.9-2.42-1.4-3.04.11-.02.23-.05.34-.08.48.42 1.84 1.9 1.84 3.76 0 3.25-3.25 6.26-6.95 6.33m-3.3-11.3c-.06-.36-.2-.69-.41-.97.01-.33.15-.65.68-.39-.29.3-.07.82-.07.82s.59-.27.47-.66c.88.21.25 1.39-.67 1.2m-.76 1.67c-.12-.49-.37-.98-.68-1.36-.29-.34-.77-.75-1.41-.75-.29 0-.79.14-1.1.27-.12-.21-.34-.73-.34-.96s.4-.48 1.17-.48c1.69 0 2.7.76 2.7 2.05 0 .45-.18.86-.34 1.22m4.35 21.81c.2 0 .29.03.41.07.49 1.32 2.36 3.82 2.44 3.93l.02.02h.03c.46-.08 1.64-.26 2.62-.26h.02c.11 0 .23 0 .3.08.06.06.1.18.1.33 0 .24-.1.66-.23.84-.34-.38-.9-.54-1.8-.54-.27 0-.59.08-.76.13h-.07l-.08.04.52.52c.8.8 1.49 1.48 1.49 1.94 0 .28-.27.63-.51.79-.05-.84-.9-1.96-1.72-2.59l-.07-.05v.3c-.02.2-.04.5-.04.82 0 1.6-.16 1.84-.71 1.84-.09 0-.21-.02-.3-.05.31-.39.43-.89.43-1.79v-.74c0-.37.04-.64.07-.85l.02-.12h-.09c-.26-.05-.74-.11-1.11-.11-.79 0-1.32.07-1.71.44-.26-.21-.52-.56-.52-.79 0-.33.21-.36.48-.36.14 0 .27.02.44.04.34.05.85.13 1.9.13h.07l-.02-.06c-.27-.76-1-1.87-2.17-3.3.1-.38.21-.63.58-.63m-10.15 3.91-.02.06h.07c1.05 0 1.56-.08 1.9-.13.18-.02.3-.04.44-.04.27 0 .48.03.48.36 0 .22-.26.58-.52.79-.39-.36-.92-.44-1.71-.44-.37 0-.85.07-1.11.1h-.04l-.05.01v.12c.05.22.08.49.08.85v.74c0 .89.12 1.4.44 1.79-.08.03-.21.05-.3.05-.55 0-.71-.24-.71-1.84 0-.32-.02-.62-.03-.82l-.02-.3-.07.05c-.82.63-1.67 1.75-1.72 2.59-.25-.16-.52-.52-.52-.79 0-.46.69-1.14 1.49-1.94l.46-.46.06-.06-.15-.04c-.17-.05-.49-.13-.76-.13-.89 0-1.45.17-1.8.54-.12-.18-.23-.6-.23-.84 0-.16.03-.27.1-.33.08-.08.2-.08.3-.08h.02c.98 0 2.16.18 2.62.25h.03l.02-.02c.08-.11 1.96-2.61 2.44-3.93.11-.04.21-.07.4-.07.37 0 .47.25.58.63-1.17 1.42-1.9 2.53-2.17 3.3M8.22 7.27c0-1.87 1.36-3.35 1.84-3.76.11.03.23.05.34.08-.51.62-1.41 1.66-1.41 3.04 0 2.73 2.92 5.11 6.23 5.11a10.019 10.019 0 0 0 .03 1.86c-3.74-.02-7.03-3.06-7.03-6.33m25.09 5.76c1.68 2.65 2.99 2.61 4.98 2.61-1.64-1.26-2.73-2.87-3.24-3.69l-3.07-4.9a7.283 7.283 0 0 0-2.26-3.99c.4-.15.72-.31.92-.46-2 0-3.99-1.02-5.08-1.02-.7 0-1.15.42-1.15.97.04.62.68 1.25 1.86 1.25.27 0 .61-.03.98-.1.64.89 1.15 1.69 1.15 2.83 0 2.15-2.57 3.82-5.16 3.82-.15 0-.29 0-.43-.02-.23-.53-1.02-1.43-1.02-2.44 0-1.71 1.11-3.1 1.11-4.79 0-1.05-.51-1.7-.71-1.97.32-.3.67-.66.75-.91-.19.08-.4.09-.72.09-1.24 0-2.26-.32-3.24-.32-.56 0-.71.17-.71.34 0 .06 0 .12.02.15-.21-.08-.41-.14-.64-.18-.29-.06-.6-.08-.94-.08-1.2 0-1.63.5-1.63.93 0 .36.29 1.03.61 1.54.47-.24 1.03-.4 1.29-.4.64 0 1.2.61 1.5 1.32-.43.05-.51.07-.94.07-1.17 0-1.96-.42-2.13-.42-.01 0-.05 0-.05.03 0 .16.33.6.98.83.86.31 2.15.45 2.36.48 0 .04-.22.44-.46.52-.05.02-.09.02-.15 0-.9-.18-1.15-.25-2.29-.69-.03-.01-.06 0-.06.04 0 .45 1.17 1.45 2.21 1.83-.87 1.11-1.96 2.26-2.48 4-.15 0-.29.02-.43.02-2.59 0-5.16-1.67-5.16-3.82 0-1.14.51-1.95 1.15-2.83.37.06.71.1.98.1 1.18 0 1.81-.63 1.86-1.25 0-.55-.45-.97-1.15-.97-1.09 0-3.07 1.02-5.08 1.02.2.15.53.31.92.46a7.2 7.2 0 0 0-2.25 3.99l-3.07 4.9c-.52.82-1.6 2.43-3.25 3.69 1.98 0 3.3.04 4.98-2.61l1.57-2.51c.12.33.26.64.43.96l-3.13 5c-.52.83-1.6 2.43-3.25 3.69 1.98 0 3.3.05 4.98-2.61l2.69-4.31c.2.21.41.42.64.62l-3.8 6.08c-.52.83-1.59 2.42-3.24 3.69 1.98 0 3.3.05 4.98-2.61l3.7-5.93c.24.15.49.3.75.44l-4.52 7.23c-.52.83-1.59 2.42-3.24 3.69 1.98 0 3.3.05 4.98-2.61l4.65-7.45c.28.1.55.21.84.3l-5.26 8.41c-.51.82-1.61 2.44-3.24 3.69 1.98 0 3.3.05 4.98-2.61l5.6-8.97c.06 0 .11.02.17.03.15.49.26.94.26 1.39 0 2.82-1.85 5.31-4.07 7.23.14.06.39.08.62.08.46 0 .75-.02.96-.06-.51 1.17-1.62 2.68-2.18 3.46-.73-.13-1.78-.23-2.48-.23s-.81.42-.81.8c0 .66.31 1.18.67 1.47.13-.34.4-.79 1.74-.79h.13c-.39.43-1.61 1.42-1.61 2.22 0 .53.58 1.32 1.34 1.32-.04-.17-.04-.33-.04-.44 0-.65.57-1.4 1.06-1.93-.01.16 0 .14 0 .32 0 1.53.14 2.23 1.11 2.23.48 0 .8-.26.92-.34-.63-.58-.66-1.03-.66-1.89v-.74c0-.2 0-.46-.03-.64.35-.05.49-.05.75-.05 0 0 1.38-.11 1.71.61.37-.34.92-.83.92-1.36 0-.35-.17-.75-.88-.75-.27 0-1.11.16-1.82.16.19-.42 1.03-1.66 1.77-2.55.11.35.28.72.67 1.03.05-.58.39-2.4 1.29-3.47.1.72.25 1.46.25 3.02 0 3.79-.91 6.6-2.85 7.13.25.44.79.83 1.34.83.71 0 1.09-.8 1.49-1.56.2.56.77 1.92 1.34 1.92s1.13-1.37 1.34-1.92c.39.76.78 1.56 1.49 1.56.55 0 1.09-.4 1.34-.83-1.94-.53-2.85-3.34-2.85-7.13 0-1.56.14-2.3.25-3.02.9 1.07 1.24 2.89 1.29 3.47.39-.31.56-.68.67-1.03.73.9 1.58 2.13 1.77 2.55-.71 0-1.55-.16-1.82-.16-.71 0-.88.4-.88.75 0 .53.54 1.02.92 1.36.33-.72 1.71-.61 1.71-.61.27 0 .41 0 .75.05-.03.19-.03.45-.03.64v.74c0 .86-.03 1.31-.66 1.89.11.08.44.34.92.34.97 0 1.11-.7 1.11-2.23v-.32c.48.53 1.06 1.28 1.06 1.93 0 .12 0 .27-.04.44.76 0 1.34-.79 1.34-1.32 0-.8-1.22-1.79-1.62-2.22h.13c1.34 0 1.61.45 1.74.79.36-.29.67-.81.67-1.47 0-.38-.08-.8-.81-.8s-1.75.1-2.48.23c-.56-.78-1.66-2.29-2.18-3.46.21.04.5.06.96.06.23 0 .48-.02.62-.08-2.22-1.92-4.07-4.41-4.07-7.23 0-.45.11-.9.26-1.39.05-.01.11-.02.17-.03l5.6 8.97c1.68 2.65 2.99 2.61 4.98 2.61-1.63-1.25-2.73-2.87-3.24-3.69l-5.26-8.41c.29-.09.57-.19.84-.3l4.65 7.45c1.68 2.65 2.99 2.61 4.98 2.61-1.65-1.27-2.72-2.86-3.24-3.69l-4.52-7.23c.26-.14.51-.29.75-.44l3.7 5.93c1.68 2.65 2.99 2.61 4.98 2.61-1.65-1.26-2.72-2.86-3.24-3.69l-3.8-6.08c.22-.2.44-.41.63-.62l2.69 4.31c1.68 2.65 2.99 2.61 4.98 2.61-1.65-1.27-2.72-2.86-3.25-3.69l-3.12-5c.17-.31.31-.63.43-.96L33.34 13ZM48.24 1.64h5.74v32.79h-5.74V1.64Z"/><path d="M48.24 34.43h5.74v32.79h-5.74V34.43Z" style="fill:red"/><path d="M48.24 67.21h5.74V100h-5.74V67.21Z" style="fill:#fc0"/><path d="M74.13 4.62c0-2.1-1.28-3.46-4.5-3.46h-2.62v13.57h2.77c3.25 0 4.7-1.55 4.7-3.68 0-1.81-1.16-2.99-2.56-3.27v-.04c1.18-.31 2.2-1.24 2.2-3.13Zm-1.73.06c0 1.55-.96 2.52-2.79 2.52h-.89V2.52h.9c1.91 0 2.77.92 2.77 2.16Zm.25 6.26c0 1.55-.87 2.38-2.87 2.38h-1.06V8.56h1.16c1.77 0 2.77.92 2.77 2.38Zm9.05 2.73h.04v1.06h1.46V5.29h-1.59v7.22c-.31.39-.94 1.04-1.91 1.04-1.06 0-1.57-.63-1.57-2.18V5.29h-1.59v6.2c0 2.56 1.04 3.48 2.71 3.48 1.44 0 2.28-.96 2.46-1.3Zm7.46-7.26c1.1 0 1.63.65 1.63 2.24v6.08h1.59v-6.2c0-2.56-1.06-3.48-2.75-3.48-1.48 0-2.32.96-2.5 1.3h-.04V5.29h-1.46v9.44h1.59V7.45c.31-.39.96-1.04 1.93-1.04Zm8.91 7.14c-1.1 0-2.09-.87-2.09-3.46s1.16-3.62 2.64-3.62c.57 0 .94.16 1.22.33v5.82c-.22.31-.77.92-1.77.92Zm1.87.18h.04v1h1.46V.65l-1.59.18v4.52c-.3-.12-.73-.24-1.34-.24-2.01 0-4.17 1.22-4.17 5.04 0 3.44 1.51 4.82 3.3 4.82 1.5 0 2.12-.94 2.3-1.24Zm7-7.38c1 0 1.53.77 1.53 2.07 0 .3-.02.55-.04.69h-3.42c.08-1.77.81-2.75 1.93-2.75Zm3.19 7.5-.59-1.12c-.22.22-.87.83-1.99.83-1.59 0-2.46-1.04-2.56-3.25h4.82c.06-.45.12-1.02.12-1.83 0-2.26-1.1-3.42-2.89-3.42-1.97 0-3.6 1.5-3.6 4.84 0 3.56 1.5 5.08 3.88 5.08 1.79 0 2.56-.85 2.81-1.12Zm6.69-7.79c-.31-.31-.94-1-2.4-1-1.53 0-2.73 1.04-2.73 2.44 0 1.3.71 2.07 1.89 2.81l.59.37c.9.57 1.38.89 1.38 1.79 0 .61-.51 1.08-1.46 1.08-1.02 0-1.61-.61-1.91-.92l-.77 1.26c.37.39 1.14 1.08 2.66 1.08 1.93 0 3.01-1.16 3.01-2.66 0-1.4-.79-2.16-2.07-2.93l-.59-.35c-.85-.51-1.24-.9-1.24-1.61 0-.55.45-1 1.3-1s1.44.55 1.65.79l.69-1.14Zm5.66.41c.98 0 1.42.65 1.42 2.18v6.08h1.59V8.4c0-.35-.02-.69-.08-.98.35-.41.94-.94 1.81-.94 1.06 0 1.63.65 1.63 2.18v6.08h1.59V8.41c0-2.24-.98-3.34-2.87-3.34-1.22 0-2.09.73-2.5 1.26-.43-.85-1.22-1.26-2.28-1.26-1.3 0-2.1.87-2.36 1.3h-.04V5.31h-1.46v9.44h1.59V7.47c.28-.33.89-.98 1.95-.98Zm11.16-3.46c.63 0 1.06-.47 1.06-1.14s-.43-1.12-1.06-1.12-1.08.47-1.08 1.12.43 1.14 1.08 1.14Zm.78 2.28h-1.59v9.44h1.59V5.29Zm5.97 1.12c1.1 0 1.63.65 1.63 2.24v6.08h1.59v-6.2c0-2.56-1.06-3.48-2.75-3.48-1.48 0-2.32.96-2.5 1.3h-.04V5.29h-1.46v9.44h1.59V7.45c.31-.39.96-1.04 1.93-1.04Zm6.41-3.4c.63 0 1.06-.47 1.06-1.14S147.43.75 146.8.75s-1.08.47-1.08 1.12.43 1.14 1.08 1.14Zm.79 2.28H146v9.44h1.59V5.29Zm7.2.77c-.31-.31-.94-1-2.4-1-1.53 0-2.73 1.04-2.73 2.44 0 1.3.71 2.07 1.89 2.81l.59.37c.9.57 1.38.89 1.38 1.79 0 .61-.51 1.08-1.46 1.08-1.02 0-1.61-.61-1.91-.92l-.77 1.26c.37.39 1.14 1.08 2.66 1.08 1.93 0 3.01-1.16 3.01-2.66 0-1.4-.79-2.16-2.07-2.93l-.59-.35c-.85-.51-1.24-.9-1.24-1.61 0-.55.45-1 1.3-1s1.44.55 1.65.79l.69-1.14Zm6.41 8.5-.22-1.28c-.16.1-.51.28-.98.28-.81 0-1.12-.39-1.12-1.73V6.6h2.07l.2-1.3h-2.26V2.66h-1.42l-.18 2.64-1.14.24V6.6h1.14v5.45c0 2.09.83 2.93 2.44 2.93.85 0 1.34-.31 1.48-.41Zm4.48-8.21c1 0 1.53.77 1.53 2.07 0 .3-.02.55-.04.69h-3.42c.08-1.77.81-2.75 1.93-2.75Zm3.19 7.5-.59-1.12c-.22.22-.87.83-1.99.83-1.59 0-2.46-1.04-2.56-3.25h4.82c.06-.45.12-1.02.12-1.83 0-2.26-1.1-3.42-2.89-3.42-1.97 0-3.6 1.5-3.6 4.84 0 3.56 1.5 5.08 3.88 5.08 1.79 0 2.56-.85 2.81-1.12Zm6.28-8.58c-.16-.06-.41-.16-.87-.16-1.2 0-1.71.71-1.99 1.46h-.04V5.29h-1.46v9.44h1.59V7.81c.24-.63.77-1.28 1.77-1.28.43 0 .71.12.79.16l.2-1.42Zm2.18-2.26c.63 0 1.06-.47 1.06-1.14s-.43-1.12-1.06-1.12-1.08.47-1.08 1.12.43 1.14 1.08 1.14Zm.79 2.28h-1.59v9.44h1.59V5.29Zm7.55 8.38h.04v1.06h1.46V5.29h-1.59v7.22c-.31.39-.94 1.04-1.91 1.04-1.06 0-1.57-.63-1.57-2.18V5.29h-1.59v6.2c0 2.56 1.04 3.48 2.71 3.48 1.44 0 2.28-.96 2.46-1.3Zm7.48-7.2c.98 0 1.42.65 1.42 2.18v6.08h1.59V8.4c0-.35-.02-.69-.08-.98.35-.41.94-.94 1.81-.94 1.06 0 1.63.65 1.63 2.18v6.08h1.59V8.41c0-2.24-.98-3.34-2.87-3.34-1.22 0-2.09.73-2.5 1.26-.43-.85-1.22-1.26-2.28-1.26-1.3 0-2.1.87-2.36 1.3h-.04V5.31h-1.46v9.44h1.59V7.47c.28-.33.89-.98 1.95-.98ZM70.65 26.26l.2-1.3h-2.12v-1.69c0-1.24.41-1.65 1.16-1.65.41 0 .71.16.87.26l.33-1.32a2.7 2.7 0 0 0-1.34-.35c-1.4 0-2.62.83-2.62 2.89v1.89l-1.14.22v1.06h1.14v8.14h1.59v-8.14h1.93Zm7.3-4.01c0-.61-.41-1-.94-1s-.94.39-.94 1 .41 1 .94 1 .94-.39.94-1Zm-3.03 0c0-.61-.41-1-.94-1s-.94.39-.94 1 .41 1 .94 1 .94-.39.94-1Zm2.42 11.09h.04v1.06h1.46v-9.44h-1.59v7.22c-.31.39-.94 1.04-1.91 1.04-1.06 0-1.57-.63-1.57-2.18v-6.08h-1.59v6.2c0 2.56 1.04 3.48 2.71 3.48 1.44 0 2.28-.96 2.46-1.3Zm8.28-8.4c-.16-.06-.41-.16-.87-.16-1.2 0-1.71.71-1.99 1.46h-.04v-1.28h-1.46v9.44h1.59v-6.92c.24-.63.77-1.28 1.77-1.28.43 0 .71.12.79.16l.2-1.42Zm14.22-4.11h-1.65v8.34c0 2.83-.87 3.99-2.75 3.99s-2.79-1.22-2.79-3.99v-8.34h-1.71v8.32c0 3.86 1.44 5.49 4.41 5.49s4.5-1.91 4.5-5.49v-8.32Zm6.12 5.31c.98 0 1.42.65 1.42 2.18v6.08h1.59v-6.33c0-.35-.02-.69-.08-.98.35-.41.94-.94 1.81-.94 1.06 0 1.63.65 1.63 2.18v6.08h1.59v-6.33c0-2.24-.98-3.34-2.87-3.34-1.22 0-2.09.73-2.5 1.26-.43-.85-1.22-1.26-2.28-1.26-1.3 0-2.1.87-2.36 1.3h-.04v-1.06h-1.46v9.44H104v-7.28c.28-.33.89-.98 1.95-.98Zm19.61-1.18-1.4 5.21c-.28 1.04-.53 2.05-.57 2.73h-.04c-.02-.69-.3-1.67-.59-2.73l-1.44-5.21h-1.65l.71 2.32-1.02 3.09c-.31.96-.59 1.77-.67 2.54h-.04c-.02-.75-.26-1.61-.51-2.6l-1.42-5.35h-1.71l2.97 9.44h1.36l1.08-3.29c.31-.92.59-1.77.63-2.5h.04c.04.73.28 1.53.55 2.48l.96 3.3h1.42l2.87-9.44h-1.53Zm5.94 1.07c1 0 1.53.77 1.53 2.07 0 .3-.02.55-.04.69h-3.42c.08-1.77.81-2.75 1.93-2.75Zm3.19 7.49-.59-1.12c-.22.22-.87.83-1.99.83-1.59 0-2.46-1.04-2.56-3.25h4.82c.06-.45.12-1.02.12-1.83 0-2.26-1.1-3.42-2.89-3.42-1.97 0-3.6 1.5-3.6 4.84 0 3.56 1.5 5.08 3.88 5.08 1.79 0 2.56-.85 2.81-1.12Zm3.5-13.2-1.59.18v11.84c0 1.67.73 2.24 1.79 2.24.71 0 1.12-.18 1.28-.26l-.14-1.18c-.1.04-.3.12-.59.12-.55 0-.75-.28-.75-1.06V20.32Zm7.2 13.91-.22-1.28c-.16.1-.51.28-.98.28-.81 0-1.12-.39-1.12-1.73v-5.23h2.07l.2-1.3h-2.26v-2.64h-1.42l-.18 2.64-1.14.24v1.06h1.14v5.45c0 2.09.83 2.93 2.44 2.93.85 0 1.34-.31 1.48-.41Zm1.34 2.93c1.04-.37 2.28-1.22 2.28-3.01 0-1.3-.53-1.93-1.3-1.93-.55 0-1.02.35-1.02 1.06s.47 1.12 1.08 1.12h.06c0 1.14-.61 1.65-1.44 2.07l.33.69Zm16.92-16.33h-1.91l-3.8 6.04h-1.04v-6.04h-1.71V34.4h1.71v-6.18h1.02l3.93 6.18h2.1l-4.6-6.94 4.29-6.63Zm3.12-.51-1.59.18v11.84c0 1.67.73 2.24 1.79 2.24.71 0 1.12-.18 1.28-.26l-.14-1.18c-.1.04-.3.12-.59.12-.55 0-.75-.28-.75-1.06V20.32Zm3.72 2.36c.63 0 1.06-.47 1.06-1.14s-.43-1.12-1.06-1.12-1.08.47-1.08 1.12.43 1.14 1.08 1.14Zm.79 2.28h-1.59v9.44h1.59v-9.44Zm5.98 1.18c.98 0 1.42.65 1.42 2.18v6.08h1.59v-6.33c0-.35-.02-.69-.08-.98.35-.41.94-.94 1.81-.94 1.06 0 1.63.65 1.63 2.18v6.08h1.59v-6.33c0-2.24-.98-3.34-2.87-3.34-1.22 0-2.09.73-2.5 1.26-.43-.85-1.22-1.26-2.28-1.26-1.3 0-2.1.87-2.36 1.3h-.04v-1.06h-1.46v9.44h1.59v-7.28c.28-.33.89-.98 1.95-.98Zm14.22 2.96H191c-2.14 0-3.93.73-3.93 2.91 0 1.53 1.08 2.64 2.52 2.64 1.2 0 1.77-.81 1.99-1.28h.04c.02.47.04.77.06 1.04h1.51c-.04-.26-.12-1.16-.12-1.97v-4.31c0-2.38-1.02-3.4-2.95-3.4-1.51 0-2.42.73-2.83 1.14l.67 1.06c.35-.31.98-.85 1.93-.85 1.02 0 1.61.51 1.61 2.1v.9Zm0 1.18v2.09c-.2.3-.65.92-1.57.92-.79 0-1.26-.49-1.26-1.46 0-1.04.81-1.48 2.32-1.53l.51-.02Zm8.74-4.55c-.31-.31-.94-1-2.4-1-1.53 0-2.73 1.04-2.73 2.44 0 1.3.71 2.07 1.89 2.81l.59.37c.9.57 1.38.89 1.38 1.79 0 .61-.51 1.08-1.46 1.08-1.02 0-1.61-.61-1.91-.92l-.77 1.26c.37.39 1.14 1.08 2.66 1.08 1.93 0 3.01-1.16 3.01-2.66 0-1.4-.79-2.16-2.07-2.93l-.59-.35c-.85-.51-1.24-.9-1.24-1.61 0-.55.45-1 1.3-1s1.44.55 1.65.79l.69-1.14Zm8.04-.06c-.3-.33-.96-.94-2.4-.94-1.87 0-3.95 1.32-3.95 4.94s1.67 4.98 3.78 4.98c1.48 0 2.2-.69 2.46-.98l-.65-1.1c-.2.22-.69.67-1.65.67-1.36 0-2.28-.9-2.28-3.68 0-2.5 1.06-3.46 2.42-3.46.94 0 1.44.53 1.61.71l.67-1.12Zm5.2.42c1.1 0 1.63.65 1.63 2.24v6.08h1.59v-6.2c0-2.5-1.04-3.48-2.7-3.48-1.51 0-2.22.9-2.42 1.2h-.04v-5.61l-1.59.18v13.91h1.59v-7.28c.31-.39.96-1.04 1.93-1.04Zm10.72 7.25h.04v1.06h1.46v-9.44h-1.59v7.22c-.31.39-.94 1.04-1.91 1.04-1.06 0-1.57-.63-1.57-2.18v-6.08h-1.59v6.2c0 2.56 1.04 3.48 2.71 3.48 1.44 0 2.28-.96 2.46-1.3Zm8.22.89-.22-1.28c-.16.1-.51.28-.98.28-.81 0-1.12-.39-1.12-1.73v-5.23h2.07l.2-1.3h-2.26v-2.64h-1.42l-.18 2.64-1.14.24v1.06h1.14v5.45c0 2.09.83 2.93 2.44 2.93.85 0 1.34-.31 1.48-.41Zm6.83-9.27h-5.67v1.3h3.72v.04l-3.93 7.08v1.02h6l.14-1.36h-4.07V33l3.82-7.02v-1.02Zm1.79 12.2c1.04-.37 2.28-1.22 2.28-3.01 0-1.3-.53-1.93-1.3-1.93-.55 0-1.02.35-1.02 1.06s.47 1.12 1.08 1.12h.06c0 1.14-.61 1.65-1.44 2.07l.33.69Zm15.74-16.33v7.79c0 1.12 0 2.24.12 2.81h-.04c-.14-.57-.69-1.57-1.24-2.56l-4.56-8.05h-1.55v13.57h1.71V26.5c0-1.12 0-2.24-.12-2.81h.04c.14.57.69 1.57 1.24 2.56l4.56 8.14h1.55V20.82h-1.71Zm8.36 8.27h-.49c-2.14 0-3.93.73-3.93 2.91 0 1.53 1.08 2.64 2.52 2.64 1.2 0 1.77-.81 1.99-1.28h.04c.02.47.04.77.06 1.04h1.51c-.04-.26-.12-1.16-.12-1.97v-4.31c0-2.38-1.02-3.4-2.95-3.4-1.51 0-2.42.73-2.83 1.14l.67 1.06c.35-.31.98-.85 1.93-.85 1.02 0 1.61.51 1.61 2.1v.9Zm0 1.18v2.09c-.2.3-.65.92-1.57.92-.79 0-1.26-.49-1.26-1.46 0-1.04.81-1.48 2.32-1.53l.51-.02Zm8.26 3.95-.22-1.28c-.16.1-.51.28-.98.28-.81 0-1.12-.39-1.12-1.73v-5.23h2.07l.2-1.3h-2.26v-2.64h-1.42l-.18 2.64-1.14.24v1.06h1.14v5.45c0 2.09.83 2.93 2.44 2.93.85 0 1.34-.31 1.48-.41Zm6.67-.89h.04v1.06h1.46v-9.44h-1.59v7.22c-.31.39-.94 1.04-1.91 1.04-1.06 0-1.57-.63-1.57-2.18v-6.08h-1.59v6.2c0 2.56 1.04 3.48 2.71 3.48 1.44 0 2.28-.96 2.46-1.3Zm8.28-8.4c-.16-.06-.41-.16-.87-.16-1.2 0-1.71.71-1.99 1.46h-.04v-1.28h-1.46v9.44h1.59v-6.92c.24-.63.77-1.28 1.77-1.28.43 0 .71.12.79.16l.2-1.42Zm6.06.79c-.31-.31-.94-1-2.4-1-1.53 0-2.73 1.04-2.73 2.44 0 1.3.71 2.07 1.89 2.81l.59.37c.9.57 1.38.89 1.38 1.79 0 .61-.51 1.08-1.46 1.08-1.02 0-1.61-.61-1.91-.92l-.77 1.26c.37.39 1.14 1.08 2.66 1.08 1.93 0 3.01-1.16 3.01-2.66 0-1.4-.79-2.16-2.07-2.93l-.59-.35c-.85-.51-1.24-.9-1.24-1.61 0-.55.45-1 1.3-1s1.44.55 1.65.79l.69-1.14Zm8.04-.06c-.3-.33-.96-.94-2.4-.94-1.87 0-3.95 1.32-3.95 4.94s1.67 4.98 3.78 4.98c1.48 0 2.2-.69 2.46-.98l-.65-1.1c-.2.22-.69.67-1.65.67-1.36 0-2.28-.9-2.28-3.68 0-2.5 1.06-3.46 2.42-3.46.94 0 1.44.53 1.61.71l.67-1.12Zm5.2.42c1.1 0 1.63.65 1.63 2.24v6.08h1.59v-6.2c0-2.5-1.04-3.48-2.7-3.48-1.51 0-2.22.9-2.42 1.2h-.04v-5.61l-1.59.18v13.91h1.59v-7.28c.31-.39.96-1.04 1.93-1.04Zm10.72 7.25h.04v1.06h1.46v-9.44h-1.59v7.22c-.31.39-.94 1.04-1.91 1.04-1.06 0-1.57-.63-1.57-2.18v-6.08h-1.59v6.2c0 2.56 1.04 3.48 2.71 3.48 1.44 0 2.28-.96 2.46-1.3Zm8.22.89-.22-1.28c-.16.1-.51.28-.98.28-.81 0-1.12-.39-1.12-1.73v-5.23h2.07l.2-1.3h-2.26v-2.64h-1.42l-.18 2.64-1.14.24v1.06h1.14v5.45c0 2.09.83 2.93 2.44 2.93.85 0 1.34-.31 1.48-.41Zm6.83-9.27h-5.67v1.3h3.72v.04l-3.93 7.08v1.02h6l.14-1.36h-4.07V33l3.82-7.02v-1.02ZM71.79 53.02h.04v1.06h1.46v-9.44H71.7v7.22c-.31.39-.94 1.04-1.91 1.04-1.06 0-1.57-.63-1.57-2.18v-6.08h-1.59v6.2c0 2.56 1.04 3.48 2.71 3.48 1.44 0 2.28-.96 2.46-1.3Zm7.45-7.26c1.1 0 1.63.65 1.63 2.24v6.08h1.59v-6.2c0-2.56-1.06-3.48-2.75-3.48-1.48 0-2.32.96-2.5 1.3h-.04v-1.06h-1.46v9.44h1.59V46.8c.31-.39.96-1.04 1.93-1.04Zm8.92 7.14c-1.1 0-2.09-.87-2.09-3.46s1.16-3.62 2.64-3.62c.57 0 .94.16 1.22.33v5.82c-.22.31-.77.92-1.77.92Zm1.86.18h.04v1h1.46V39.99l-1.59.18v4.52c-.3-.12-.73-.24-1.34-.24-2.01 0-4.17 1.22-4.17 5.04 0 3.44 1.51 4.82 3.3 4.82 1.5 0 2.12-.94 2.3-1.24Zm11.63-7.32c1.1 0 1.63.65 1.63 2.24v6.08h1.59v-6.2c0-2.56-1.06-3.48-2.75-3.48-1.48 0-2.32.96-2.5 1.3h-.04v-1.06h-1.46v9.44h1.59V46.8c.31-.39.96-1.04 1.93-1.04Zm10.72 7.26h.04v1.06h1.46v-9.44h-1.59v7.22c-.31.39-.94 1.04-1.91 1.04-1.06 0-1.57-.63-1.57-2.18v-6.08h-1.59v6.2c0 2.56 1.04 3.48 2.71 3.48 1.44 0 2.28-.96 2.46-1.3Zm10.62-8.38h-1.89l-2.54 3.68h-.67V40l-1.59.18v13.91h1.59v-4.41h.65l2.66 4.41h1.91l-3.25-5.11 3.13-4.33Zm3.11-4.65-1.59.18v11.84c0 1.67.73 2.24 1.79 2.24.71 0 1.12-.18 1.28-.26l-.14-1.18c-.1.04-.3.12-.59.12-.55 0-.75-.28-.75-1.06V39.99Zm5.98 5.71c1 0 1.53.77 1.53 2.07 0 .3-.02.55-.04.69h-3.42c.08-1.77.81-2.75 1.93-2.75Zm3.19 7.49-.59-1.12c-.22.22-.87.83-1.99.83-1.59 0-2.46-1.04-2.56-3.25h4.82c.06-.45.12-1.02.12-1.83 0-2.26-1.1-3.42-2.89-3.42-1.97 0-3.6 1.5-3.6 4.84 0 3.56 1.5 5.08 3.88 5.08 1.79 0 2.56-.85 2.81-1.12Zm5.8-4.42h-.49c-2.14 0-3.93.73-3.93 2.91 0 1.53 1.08 2.64 2.52 2.64 1.2 0 1.77-.81 1.99-1.28h.04c.02.47.04.77.06 1.04h1.51c-.04-.26-.12-1.16-.12-1.97V47.8c0-2.38-1.02-3.4-2.95-3.4-1.51 0-2.42.73-2.83 1.14l.67 1.06c.35-.31.98-.85 1.93-.85 1.02 0 1.61.51 1.61 2.1v.9Zm0 1.18v2.09c-.2.3-.65.92-1.57.92-.79 0-1.26-.49-1.26-1.46 0-1.04.81-1.48 2.32-1.53l.51-.02Zm8.32-5.33c-.16-.06-.41-.16-.87-.16-1.2 0-1.71.71-1.99 1.46h-.04v-1.28h-1.46v9.44h1.59v-6.92c.24-.63.77-1.28 1.77-1.28.43 0 .71.12.79.16l.2-1.42Zm4.21 1.08c1 0 1.53.77 1.53 2.07 0 .3-.02.55-.04.69h-3.42c.08-1.77.81-2.75 1.93-2.75Zm3.19 7.49-.59-1.12c-.22.22-.87.83-1.99.83-1.59 0-2.46-1.04-2.56-3.25h4.82c.06-.45.12-1.02.12-1.83 0-2.26-1.1-3.42-2.89-3.42-1.97 0-3.6 1.5-3.6 4.84 0 3.56 1.5 5.08 3.88 5.08 1.79 0 2.56-.85 2.81-1.12Zm12.28-11.9c-.3-.24-1.16-1.02-2.97-1.02-2.12 0-3.48 1.34-3.48 3.09 0 1.87.87 2.77 2.36 4.03l1.1.92c1.14.96 1.69 1.59 1.69 2.77 0 .92-.75 1.69-2.09 1.69s-2.3-.87-2.64-1.18l-.69 1.5c.39.35 1.42 1.22 3.36 1.22 2.44 0 3.78-1.4 3.78-3.46 0-1.77-1-2.83-2.28-3.9l-1.1-.9c-1.24-1-1.81-1.67-1.81-2.73 0-.85.61-1.57 1.79-1.57 1.26 0 2.05.63 2.26.85l.71-1.3Zm3.14 1.06c.63 0 1.06-.47 1.06-1.14s-.43-1.12-1.06-1.12-1.08.47-1.08 1.12.43 1.14 1.08 1.14Zm.79 2.29h-1.59v9.44H173v-9.44Zm8.36.7c-.3-.33-.96-.94-2.4-.94-1.87 0-3.95 1.32-3.95 4.94s1.67 4.98 3.78 4.98c1.48 0 2.2-.69 2.46-.98l-.65-1.1c-.2.22-.69.67-1.65.67-1.36 0-2.28-.9-2.28-3.68 0-2.5 1.06-3.46 2.42-3.46.94 0 1.44.53 1.61.71l.67-1.12Zm5.2.42c1.1 0 1.63.65 1.63 2.24v6.08h1.59v-6.2c0-2.5-1.04-3.48-2.7-3.48-1.51 0-2.22.9-2.42 1.2h-.04v-5.61l-1.59.18v13.91h1.59V46.8c.31-.39.96-1.04 1.93-1.04Zm8.67-.06c1 0 1.53.77 1.53 2.07 0 .3-.02.55-.04.69h-3.42c.08-1.77.81-2.75 1.93-2.75Zm3.19 7.49-.59-1.12c-.22.22-.87.83-1.99.83-1.59 0-2.46-1.04-2.56-3.25h4.82c.06-.45.12-1.02.12-1.83 0-2.26-1.1-3.42-2.89-3.42-1.97 0-3.6 1.5-3.6 4.84 0 3.56 1.5 5.08 3.88 5.08 1.79 0 2.56-.85 2.81-1.12Zm6.27-8.57c-.16-.06-.41-.16-.87-.16-1.2 0-1.71.71-1.99 1.46h-.04v-1.28h-1.46v9.44h1.59v-6.92c.24-.63.77-1.28 1.77-1.28.43 0 .71.12.79.16l.2-1.42Zm4.9 1.14c1.1 0 1.63.65 1.63 2.24v6.08h1.59v-6.2c0-2.5-1.04-3.48-2.7-3.48-1.51 0-2.22.9-2.42 1.2h-.04v-5.61l-1.59.18v13.91h1.59V46.8c.31-.39.96-1.04 1.93-1.04Zm8.68-.06c1 0 1.53.77 1.53 2.07 0 .3-.02.55-.04.69h-3.42c.08-1.77.81-2.75 1.93-2.75Zm3.18 7.49-.59-1.12c-.22.22-.87.83-1.99.83-1.59 0-2.46-1.04-2.56-3.25h4.82c.06-.45.12-1.02.12-1.83 0-2.26-1.1-3.42-2.89-3.42-1.97 0-3.6 1.5-3.6 4.84 0 3.56 1.5 5.08 3.88 5.08 1.79 0 2.56-.85 2.81-1.12Zm2.74-10.84c.63 0 1.06-.47 1.06-1.14s-.43-1.12-1.06-1.12-1.08.47-1.08 1.12.43 1.14 1.08 1.14Zm.78 2.29h-1.59v9.44h1.59v-9.44Zm6.73 9.26-.22-1.28c-.16.1-.51.28-.98.28-.81 0-1.12-.39-1.12-1.73v-5.23h2.07l.2-1.3h-2.26V42h-1.42l-.18 2.64-1.14.24v1.06h1.14v5.45c0 2.09.83 2.93 2.44 2.93.85 0 1.34-.31 1.48-.41Z"/></svg>
