<svg xmlns="http://www.w3.org/2000/svg" width="250" height="66" viewBox="0 0 250 66"><path d="M48.287 3.077a2.57 2.57 0 0 1-.116.812c-.069.217-.176.42-.315.599a1.662 1.662 0 0 1-.463.409 2.256 2.256 0 0 1-.547.232v.025c.229.042.449.126.65.246a2.056 2.056 0 0 1 .888 1.089c.092.258.138.531.135.805.004.331-.057.659-.18.966a1.96 1.96 0 0 1-.56.76 2.72 2.72 0 0 1-.958.503 4.639 4.639 0 0 1-1.376.18H43.63V.81h1.711c.453-.008.906.047 1.344.164.335.088.647.244.92.458.233.188.413.435.521.715.11.298.165.613.161.931Zm-1.132.038a1.315 1.315 0 0 0-.438-1.018 2 2 0 0 0-1.376-.4h-.592v3.066h.578c.494.036.983-.121 1.364-.438.321-.32.489-.762.463-1.214v.004Zm.164 4.095a1.447 1.447 0 0 0-.47-1.14 1.95 1.95 0 0 0-1.344-.418h-.759V8.77h.695a2.137 2.137 0 0 0 1.434-.393c.314-.303.478-.729.448-1.164l-.003-.002Zm6.895 2.486h-.948V9h-.025a1.246 1.246 0 0 1-.164.225 1.668 1.668 0 0 1-.327.283 2.19 2.19 0 0 1-.483.238 1.826 1.826 0 0 1-.63.103c-.251.003-.5-.038-.736-.122a1.355 1.355 0 0 1-.56-.393 1.83 1.83 0 0 1-.353-.703 3.942 3.942 0 0 1-.122-1.065V3.51h1.042v3.982c-.033.384.055.769.251 1.101a.92.92 0 0 0 .778.328c.271.009.537-.07.759-.225.181-.127.346-.277.491-.445V3.509h1.042l-.016 6.188Zm4.965 0V5.714a1.876 1.876 0 0 0-.263-1.128.95.95 0 0 0-.804-.341 1.247 1.247 0 0 0-.772.232 2.84 2.84 0 0 0-.491.451v4.767h-1.037V3.511h.952v.696h.025c.046-.081.101-.156.164-.225.098-.109.211-.205.335-.283.154-.098.319-.178.491-.238.207-.072.426-.107.646-.103a2.15 2.15 0 0 1 .746.122c.22.079.415.215.566.393.168.206.29.445.36.702.093.347.137.705.128 1.065v4.059h-1.046Zm2.315-3.002a4.395 4.395 0 0 1 .245-1.571 2.9 2.9 0 0 1 .63-1.018c.244-.249.544-.437.875-.548.315-.107.645-.162.978-.164.173-.002.345.013.515.045.124.023.244.06.36.11V.585l1.042-.116v9.225h-.949v-.655h-.025a1.435 1.435 0 0 1-.425.483 1.73 1.73 0 0 1-.45.232 1.873 1.873 0 0 1-.63.097 2.03 2.03 0 0 1-.83-.174 1.786 1.786 0 0 1-.688-.554 2.899 2.899 0 0 1-.47-.983 5.267 5.267 0 0 1-.174-1.441l-.004-.003Zm2.448 2.232c.148.002.296-.019.438-.064.119-.039.231-.094.335-.164a1.467 1.467 0 0 0 .386-.38V4.504a1.604 1.604 0 0 0-.327-.155 1.467 1.467 0 0 0-.47-.065 1.85 1.85 0 0 0-.675.122 1.325 1.325 0 0 0-.547.409c-.17.219-.294.47-.367.737a3.909 3.909 0 0 0-.135 1.108c-.007.362.03.723.11 1.076.056.249.158.485.302.696.112.161.262.292.438.38.16.075.335.114.512.113Zm7.757-3.324c0 .266-.008.496-.025.69a15.05 15.05 0 0 1-.052.509H68.47a2.748 2.748 0 0 0 .47 1.611c.297.352.743.543 1.203.515.166.002.331-.02.491-.065a1.816 1.816 0 0 0 .65-.335 2.88 2.88 0 0 0 .164-.142l.386.737-.193.187a1.76 1.76 0 0 1-.347.246 2.488 2.488 0 0 1-.54.213 2.816 2.816 0 0 1-.759.09 2.74 2.74 0 0 1-1.048-.193 1.993 1.993 0 0 1-.798-.599 2.908 2.908 0 0 1-.508-1.031 5.47 5.47 0 0 1-.18-1.501 4.798 4.798 0 0 1 .187-1.424c.103-.358.276-.692.508-.983.2-.247.456-.443.746-.573.286-.128.595-.194.907-.196a1.767 1.767 0 0 1 1.391.56c.369.48.547 1.08.5 1.685ZM69.744 4.21a1.045 1.045 0 0 0-.888.464 2.534 2.534 0 0 0-.385 1.341h2.251c.011-.062.017-.124.02-.187.004-.081.007-.169.007-.264a1.679 1.679 0 0 0-.257-.998.864.864 0 0 0-.747-.355Zm6.008.554a2.556 2.556 0 0 0-.373-.316 1.163 1.163 0 0 0-.708-.2.927.927 0 0 0-.63.193.595.595 0 0 0-.218.464.83.83 0 0 0 .2.573c.18.189.386.351.611.483l.386.232c.373.21.708.483.991.805.25.316.377.712.36 1.115.01.465-.174.913-.508 1.237a1.99 1.99 0 0 1-1.46.503 2.535 2.535 0 0 1-1.15-.257 1.627 1.627 0 0 1-.353-.225 2.465 2.465 0 0 1-.232-.225l.502-.825c.051.051.113.111.187.18a1.704 1.704 0 0 0 .61.364c.146.046.297.067.45.065.253.017.504-.056.708-.206a.632.632 0 0 0 .245-.503 1.114 1.114 0 0 0-.058-.38.864.864 0 0 0-.173-.29 1.655 1.655 0 0 0-.283-.246 8.548 8.548 0 0 0-.386-.258l-.386-.246a3.726 3.726 0 0 1-.907-.786 1.644 1.644 0 0 1-.327-1.056c-.003-.22.044-.438.135-.638.09-.193.219-.364.38-.503.169-.145.363-.259.573-.335.225-.082.462-.124.701-.122.208-.004.416.02.618.07a1.856 1.856 0 0 1 .751.399c.081.073.148.135.2.187l-.454.748Zm5.081 4.935V5.717a2.075 2.075 0 0 0-.218-1.095.783.783 0 0 0-.708-.335 1.473 1.473 0 0 0-.81.229 1.544 1.544 0 0 0-.27.213 3.958 3.958 0 0 0-.193.206v4.767h-1.042V3.518h.952v.696h.025a1.968 1.968 0 0 1 .515-.534 1.753 1.753 0 0 1 1.029-.315 1.553 1.553 0 0 1 1.492.825 1.98 1.98 0 0 1 .605-.547 1.972 1.972 0 0 1 1.029-.277c1.254 0 1.882.73 1.882 2.191v4.149h-1.042V5.724a1.754 1.754 0 0 0-.27-1.095.962.962 0 0 0-.798-.335 1.193 1.193 0 0 0-.727.213 2.82 2.82 0 0 0-.457.409c.018.1.031.201.038.303.009.109.013.223.013.341v4.149L80.832 9.7Zm6.882 0h-1.042V3.515h1.042v6.184ZM87.2 2.02a.674.674 0 0 1-.515-.206.759.759 0 0 1-.193-.541.744.744 0 0 1 .193-.528.669.669 0 0 1 .515-.206.656.656 0 0 1 .502.206c.131.144.2.334.193.528a.757.757 0 0 1-.193.541.654.654 0 0 1-.502.207Zm5.482 7.679V5.717a1.876 1.876 0 0 0-.263-1.128.95.95 0 0 0-.804-.341 1.247 1.247 0 0 0-.772.232 2.84 2.84 0 0 0-.491.451v4.767H89.31V3.514h.952v.696h.025c.046-.081.101-.156.164-.225.098-.109.211-.205.335-.283.154-.098.319-.178.491-.238.207-.072.424-.107.643-.103a2.15 2.15 0 0 1 .746.122c.22.079.415.215.566.393.168.206.29.445.36.702.093.347.137.705.128 1.065v4.059h-1.037Zm3.641 0h-1.042V3.515h1.042v6.184Zm-.515-7.679a.674.674 0 0 1-.515-.206.759.759 0 0 1-.193-.541.744.744 0 0 1 .193-.528.669.669 0 0 1 .515-.206.656.656 0 0 1 .502.206c.131.144.2.334.193.528a.757.757 0 0 1-.193.541.653.653 0 0 1-.504.207h.002Zm4.772 2.744a2.556 2.556 0 0 0-.373-.316 1.163 1.163 0 0 0-.708-.2.927.927 0 0 0-.63.193.595.595 0 0 0-.218.464.83.83 0 0 0 .2.573c.18.189.386.351.611.483l.386.232c.373.21.708.483.991.805.25.316.377.712.36 1.115.01.465-.174.913-.508 1.237a1.99 1.99 0 0 1-1.46.503 2.535 2.535 0 0 1-1.15-.257 1.59 1.59 0 0 1-.353-.225 2.465 2.465 0 0 1-.232-.225l.502-.825c.051.051.113.111.187.18a1.704 1.704 0 0 0 .611.364c.146.046.297.067.45.065.253.017.504-.056.708-.206a.632.632 0 0 0 .245-.503 1.114 1.114 0 0 0-.058-.38.864.864 0 0 0-.173-.29 1.655 1.655 0 0 0-.283-.246 8.548 8.548 0 0 0-.386-.258l-.386-.246a3.726 3.726 0 0 1-.907-.786 1.644 1.644 0 0 1-.327-1.056 1.478 1.478 0 0 1 .515-1.141c.169-.145.363-.259.573-.335.224-.082.462-.124.701-.122.208-.004.416.02.618.07a1.856 1.856 0 0 1 .751.399c.081.073.148.135.2.187l-.455.748Zm4.476-.4h-1.351v3.427c-.029.308.028.618.164.895.136.17.349.26.566.238.136.003.271-.019.398-.065.086-.03.168-.069.245-.116l.142.838a1.82 1.82 0 0 1-.308.164 1.643 1.643 0 0 1-.655.11 1.525 1.525 0 0 1-1.196-.445 2.189 2.189 0 0 1-.398-1.474V4.367h-.746v-.696l.746-.155.115-1.726h.926v1.726h1.479l-.128.848Zm5.055 1.237c0 .266-.008.496-.025.69s-.034.363-.052.509h-3.152a2.748 2.748 0 0 0 .47 1.611c.297.352.743.543 1.203.515.166.002.331-.02.491-.065a1.816 1.816 0 0 0 .65-.335 2.88 2.88 0 0 0 .164-.142l.386.737-.193.187a1.76 1.76 0 0 1-.347.246 2.488 2.488 0 0 1-.54.213 2.816 2.816 0 0 1-.759.09 2.74 2.74 0 0 1-1.048-.193 1.993 1.993 0 0 1-.798-.599 2.908 2.908 0 0 1-.508-1.031 5.47 5.47 0 0 1-.18-1.501 4.798 4.798 0 0 1 .187-1.424c.103-.358.276-.692.508-.983.2-.247.456-.443.746-.573.285-.127.594-.194.906-.195a1.767 1.767 0 0 1 1.391.56c.369.48.547 1.08.5 1.684h.002Zm-1.955-1.392a1.045 1.045 0 0 0-.888.464 2.54 2.54 0 0 0-.386 1.34h2.251c.011-.062.017-.124.02-.187.004-.081.007-.169.007-.264a1.679 1.679 0 0 0-.257-.998.865.865 0 0 0-.751-.353l.005-.002Zm6.058.219a.747.747 0 0 0-.164-.065 1.228 1.228 0 0 0-.347-.038 1.061 1.061 0 0 0-.765.264 1.55 1.55 0 0 0-.393.573v4.535h-1.042V3.512h.952v.838h.025c.043-.123.098-.242.164-.355.069-.116.155-.221.257-.31.108-.093.232-.165.367-.213a1.49 1.49 0 0 1 .508-.077c.119-.003.238.01.353.038.09.026.161.047.212.065l-.127.929Zm2.071 5.27h-1.042V3.513h1.042v6.184Zm-.515-7.679a.674.674 0 0 1-.515-.206.759.759 0 0 1-.193-.541.744.744 0 0 1 .193-.528.669.669 0 0 1 .515-.206.656.656 0 0 1 .502.206c.131.144.2.334.193.528a.757.757 0 0 1-.193.541.658.658 0 0 1-.502.209V2.02Zm6.431 7.679h-.952v-.696h-.025a1.246 1.246 0 0 1-.164.225 1.668 1.668 0 0 1-.327.283 2.19 2.19 0 0 1-.483.238 1.826 1.826 0 0 1-.63.103c-.251.004-.5-.038-.736-.122a1.355 1.355 0 0 1-.56-.393 1.83 1.83 0 0 1-.353-.703 3.942 3.942 0 0 1-.122-1.065V3.511h1.042v3.982c-.033.384.055.769.251 1.101a.92.92 0 0 0 .778.328c.271.009.537-.07.759-.225.181-.127.346-.277.491-.445V3.51h1.042l-.011 6.188Zm4.837 0V5.716a2.075 2.075 0 0 0-.218-1.095.783.783 0 0 0-.708-.335 1.473 1.473 0 0 0-.81.229c-.098.06-.188.132-.27.213a3.958 3.958 0 0 0-.193.206v4.767h-1.042V3.516h.952v.696h.025c.058-.089.123-.173.193-.251a1.84 1.84 0 0 1 1.347-.603 1.553 1.553 0 0 1 1.492.825 1.98 1.98 0 0 1 .605-.547 1.972 1.972 0 0 1 1.029-.277c1.255 0 1.882.73 1.882 2.191v4.149h-1.042V5.717a1.754 1.754 0 0 0-.27-1.095.965.965 0 0 0-.798-.335 1.193 1.193 0 0 0-.727.213 2.82 2.82 0 0 0-.457.409c.018.1.031.201.038.303.009.109.013.223.013.341v4.149l-1.042-.004ZM46.01 17.361h-1.261v5.334h-1.042v-5.334h-.746v-.696l.746-.142v-1.237a2.35 2.35 0 0 1 .142-.863c.082-.221.209-.423.373-.593.151-.153.336-.267.54-.335.211-.07.432-.104.655-.103.193-.005.385.025.566.09.107.038.21.085.308.142l-.218.863a1.35 1.35 0 0 0-.218-.11.916.916 0 0 0-.348-.058.693.693 0 0 0-.566.232 1.37 1.37 0 0 0-.193.85v1.108h1.391l-.128.852Zm5.352 5.334h-.952v-.696h-.025a1.246 1.246 0 0 1-.164.225 1.668 1.668 0 0 1-.327.283 2.19 2.19 0 0 1-.483.238 1.826 1.826 0 0 1-.63.103c-.251.004-.5-.038-.736-.122a1.355 1.355 0 0 1-.56-.393 1.83 1.83 0 0 1-.353-.703 3.942 3.942 0 0 1-.122-1.065v-4.059h1.042v3.982c-.033.384.055.769.251 1.101a.92.92 0 0 0 .778.328c.271.009.537-.07.759-.225.181-.127.346-.277.491-.445v-4.741h1.042l-.011 6.188Zm-2.56-7.962a.646.646 0 0 1-.18.477.595.595 0 0 1-.438.18.595.595 0 0 1-.438-.18.644.644 0 0 1-.18-.477.646.646 0 0 1 .18-.477.595.595 0 0 1 .438-.18.595.595 0 0 1 .438.18.645.645 0 0 1 .179.473v.003Zm1.981 0a.646.646 0 0 1-.18.477.595.595 0 0 1-.438.18.595.595 0 0 1-.438-.18.644.644 0 0 1-.18-.477.646.646 0 0 1 .18-.477.595.595 0 0 1 .438-.18.595.595 0 0 1 .438.18.646.646 0 0 1 .18.473v.003Zm4.888 2.693a.747.747 0 0 0-.164-.065 1.24 1.24 0 0 0-.348-.038 1.061 1.061 0 0 0-.765.264 1.55 1.55 0 0 0-.393.573v4.535h-1.046v-6.184h.951v.838h.025c.043-.123.098-.242.164-.355.069-.116.155-.221.257-.31.108-.093.232-.165.367-.213a1.49 1.49 0 0 1 .508-.077c.119-.003.238.01.353.038.09.026.161.047.212.065l-.122.929Zm9.428 1.826a4.214 4.214 0 0 1-.736 2.68 2.665 2.665 0 0 1-2.209.915 2.67 2.67 0 0 1-2.168-.851 4.252 4.252 0 0 1-.714-2.744v-5.45h1.119v5.463a3.418 3.418 0 0 0 .457 1.991c.323.425.837.66 1.37.625a1.56 1.56 0 0 0 1.364-.612 3.524 3.524 0 0 0 .438-2.003v-5.463h1.081v5.449Zm4.927 3.439v-3.982a2.075 2.075 0 0 0-.218-1.095.781.781 0 0 0-.708-.336 1.473 1.473 0 0 0-.81.229c-.098.06-.188.132-.27.213a3.958 3.958 0 0 0-.193.206v4.767h-1.042v-6.184h.949v.696h.025a1.968 1.968 0 0 1 .515-.534 1.84 1.84 0 0 1 .45-.225c.187-.063.382-.093.579-.09a1.553 1.553 0 0 1 1.492.825 1.98 1.98 0 0 1 .605-.547 1.972 1.972 0 0 1 1.029-.277c1.255 0 1.882.73 1.882 2.191v4.149h-1.044v-3.982a1.754 1.754 0 0 0-.27-1.095.966.966 0 0 0-.798-.34 1.193 1.193 0 0 0-.727.213 2.82 2.82 0 0 0-.457.409c.018.1.031.201.038.303.009.109.013.223.013.341v4.149l-1.042-.003Zm12.902-6.184-1.882 6.184h-.926l-.63-2.164a15.252 15.252 0 0 1-.238-.863 4.664 4.664 0 0 1-.122-.76h-.025a3.828 3.828 0 0 1-.142.773 16.86 16.86 0 0 1-.27.863l-.708 2.151h-.888l-1.942-6.184h1.119l.926 3.504c.086.328.161.63.225.908.062.26.099.526.11.793h.025c.03-.264.085-.526.164-.78.081-.273.173-.567.277-.883l.669-2.023-.463-1.521h1.081l.939 3.414c.094.352.18.683.257.992.07.261.113.529.128.798h.025c.025-.271.067-.54.128-.805.069-.313.151-.641.245-.983l.913-3.414 1.002-.002Zm4.837 2.087c0 .266-.008.496-.025.69a15.05 15.05 0 0 1-.052.509h-3.152a2.748 2.748 0 0 0 .47 1.611c.297.352.743.543 1.203.515.166.002.331-.02.491-.065a1.816 1.816 0 0 0 .65-.335 2.88 2.88 0 0 0 .164-.142l.386.737-.193.187a1.737 1.737 0 0 1-.348.246 2.488 2.488 0 0 1-.54.213 2.816 2.816 0 0 1-.759.09 2.74 2.74 0 0 1-1.048-.193 1.984 1.984 0 0 1-.798-.599 2.908 2.908 0 0 1-.508-1.031 5.47 5.47 0 0 1-.18-1.501 4.78 4.78 0 0 1 .181-1.427c.103-.358.276-.692.508-.983.2-.247.456-.443.746-.573.288-.125.599-.189.913-.187a1.767 1.767 0 0 1 1.391.56c.368.479.546 1.077.501 1.68Zm-1.955-1.392a1.045 1.045 0 0 0-.888.464 2.54 2.54 0 0 0-.386 1.34h2.251c.011-.062.017-.124.02-.187.004-.081.007-.169.007-.264a1.679 1.679 0 0 0-.257-.998.867.867 0 0 0-.746-.353v-.002Zm4.374 4.045a.977.977 0 0 0 .11.541c.093.112.235.17.38.155.08.002.16-.007.238-.025.051-.012.1-.03.148-.052l.09.773a2.174 2.174 0 0 1-.283.103c-.18.048-.367.07-.553.065a1.145 1.145 0 0 1-.849-.322 1.61 1.61 0 0 1-.322-1.146v-7.756l1.042-.116v7.78Zm4.541-3.891h-1.351v3.427c-.029.308.028.618.164.895.136.17.349.26.566.238.136.003.271-.019.398-.065.086-.03.168-.069.245-.116l.142.838a1.82 1.82 0 0 1-.308.164 1.643 1.643 0 0 1-.655.11 1.525 1.525 0 0 1-1.196-.445 2.189 2.189 0 0 1-.398-1.474V17.36h-.746v-.696l.746-.155.115-1.726h.926v1.726h1.479l-.128.847Zm1.016 4.6a.656.656 0 0 1 .2-.522.693.693 0 0 1 .47-.174.734.734 0 0 1 .611.31c.18.284.264.618.238.953a1.908 1.908 0 0 1-.488 1.333 2.08 2.08 0 0 1-.483.393c-.165.099-.34.181-.521.246l-.218-.451c.247-.124.469-.292.655-.496.19-.245.29-.547.283-.857h-.035a.716.716 0 0 1-.502-.187.705.705 0 0 1-.209-.548Zm11.436-8.156v8.891h-1.016l-2.985-5.331c-.18-.328-.349-.641-.508-.941a3.223 3.223 0 0 1-.303-.737h-.023c.05.259.074.522.071.786.004.335.007.687.007 1.056v5.167h-1.119v-8.89h1.016l2.985 5.27c.18.328.349.641.508.941.131.232.232.48.302.737h.025a3.909 3.909 0 0 1-.07-.786 87.927 87.927 0 0 1-.007-1.056v-5.102l1.118-.004Zm1.454 7.318c-.011-.313.06-.624.206-.901.134-.237.324-.439.553-.586.25-.158.528-.267.818-.322.328-.066.662-.098.997-.097h.322v-.593a1.603 1.603 0 0 0-.277-1.083 1.009 1.009 0 0 0-.778-.296 1.4 1.4 0 0 0-.772.2 4.602 4.602 0 0 0-.491.355l-.438-.696c.084-.082.172-.159.263-.232.122-.095.254-.178.393-.246a2.648 2.648 0 0 1 1.197-.27 1.868 1.868 0 0 1 1.441.528 2.46 2.46 0 0 1 .491 1.701v2.822c0 .266.008.526.025.78.008.171.025.341.052.509h-.991l-.038-.683h-.025a1.588 1.588 0 0 1-.155.264 1.248 1.248 0 0 1-.257.271c-.114.088-.239.16-.373.213a1.351 1.351 0 0 1-.515.09 1.633 1.633 0 0 1-1.178-.49 1.601 1.601 0 0 1-.347-.548 1.885 1.885 0 0 1-.125-.689v-.002Zm1.865.838c.132.002.263-.02.386-.065.103-.038.2-.09.29-.155.078-.056.147-.124.206-.2a4.28 4.28 0 0 1 .148-.187v-1.366l-.335.013a2.39 2.39 0 0 0-1.132.258.806.806 0 0 0-.386.748c-.02.257.058.513.218.715a.778.778 0 0 0 .604.239Zm6.265-4.6h-1.351v3.427c-.029.308.028.618.164.895.136.17.349.26.566.238.136.003.271-.019.398-.065.086-.03.168-.069.245-.116l.142.838a1.82 1.82 0 0 1-.308.164 1.643 1.643 0 0 1-.655.11 1.525 1.525 0 0 1-1.196-.445 2.189 2.189 0 0 1-.398-1.474V17.36h-.746v-.696l.746-.155.116-1.726h.926v1.726h1.479l-.128.847Zm5.505 5.334h-.952v-.696h-.025a1.246 1.246 0 0 1-.164.225 1.668 1.668 0 0 1-.327.283 2.19 2.19 0 0 1-.483.238 1.826 1.826 0 0 1-.63.103c-.251.003-.5-.038-.736-.122a1.355 1.355 0 0 1-.56-.393 1.83 1.83 0 0 1-.353-.703 3.942 3.942 0 0 1-.122-1.065v-4.059h1.036v3.982c-.035.385.05.771.245 1.105a.92.92 0 0 0 .778.328c.271.009.537-.07.759-.225.181-.127.346-.277.491-.445v-4.741h1.042v6.184Zm4.309-5.27a.747.747 0 0 0-.164-.065 1.228 1.228 0 0 0-.347-.038 1.061 1.061 0 0 0-.765.264 1.55 1.55 0 0 0-.393.573v4.535h-1.048v-6.184h.952v.838h.025c.043-.123.098-.242.164-.355a1.28 1.28 0 0 1 .258-.31c.108-.093.232-.165.367-.213a1.49 1.49 0 0 1 .508-.077c.119-.003.238.01.353.038.09.026.161.047.212.065l-.122.929Zm3.641.335a2.556 2.556 0 0 0-.373-.316 1.163 1.163 0 0 0-.708-.2.927.927 0 0 0-.63.193.595.595 0 0 0-.218.464.83.83 0 0 0 .2.573c.18.189.386.351.611.483l.386.232c.373.21.708.483.991.805.25.316.377.712.36 1.115.01.465-.174.913-.508 1.237a1.99 1.99 0 0 1-1.46.503 2.535 2.535 0 0 1-1.15-.257 1.627 1.627 0 0 1-.353-.225 2.465 2.465 0 0 1-.232-.225l.502-.825c.051.051.113.111.187.18a1.704 1.704 0 0 0 .61.364c.146.046.297.067.45.065.253.017.504-.056.708-.206a.632.632 0 0 0 .245-.503 1.114 1.114 0 0 0-.058-.38.864.864 0 0 0-.173-.29 1.655 1.655 0 0 0-.283-.246 8.548 8.548 0 0 0-.386-.258l-.386-.246a3.726 3.726 0 0 1-.907-.786 1.644 1.644 0 0 1-.327-1.056 1.478 1.478 0 0 1 .515-1.141c.169-.145.363-.259.573-.335.225-.082.462-.124.701-.122.208-.004.416.02.618.07a1.823 1.823 0 0 1 .752.399c.081.073.148.135.2.187l-.455.748Zm5.274-.052a5.003 5.003 0 0 0-.122-.116 1.295 1.295 0 0 0-.212-.155 1.353 1.353 0 0 0-.717-.193 1.584 1.584 0 0 0-.623.122 1.263 1.263 0 0 0-.502.393c-.156.21-.27.448-.335.702a3.913 3.913 0 0 0-.122 1.05c-.007.385.03.77.11 1.146.054.262.157.512.302.737.116.174.279.313.47.4.193.084.401.125.611.123.253.017.505-.04.727-.164.126-.079.244-.17.353-.27l.425.721c-.058.067-.12.129-.187.187a1.6 1.6 0 0 1-.315.213 2.124 2.124 0 0 1-.47.174c-.208.05-.422.073-.637.07a2.74 2.74 0 0 1-.965-.164 1.913 1.913 0 0 1-.785-.554 2.781 2.781 0 0 1-.528-1.005 5.224 5.224 0 0 1-.193-1.533 4.32 4.32 0 0 1 .232-1.508c.129-.371.335-.712.605-.998.233-.243.516-.432.83-.554a2.56 2.56 0 0 1 .92-.174c.206-.003.411.019.611.065.156.037.307.092.45.164.111.056.215.125.308.206.081.073.148.135.2.187l-.441.729Zm4.901 4.986v-3.982a1.876 1.876 0 0 0-.263-1.128.95.95 0 0 0-.804-.341 1.247 1.247 0 0 0-.772.232 2.84 2.84 0 0 0-.491.451v4.767h-1.042v-9.107l1.042-.116v3.672h.025c.051-.072.105-.141.164-.206.088-.099.19-.186.302-.258a1.99 1.99 0 0 1 1.12-.322c.486-.023.956.171 1.286.528a2.59 2.59 0 0 1 .476 1.752v4.059h-1.042Zm6.921 0h-.953v-.696h-.025a1.246 1.246 0 0 1-.164.225 1.668 1.668 0 0 1-.327.283 2.19 2.19 0 0 1-.483.238 1.826 1.826 0 0 1-.63.103c-.251.003-.5-.038-.736-.122a1.355 1.355 0 0 1-.56-.393 1.83 1.83 0 0 1-.353-.703 3.942 3.942 0 0 1-.122-1.065V16.5h1.042v3.982c-.033.384.055.769.251 1.101a.92.92 0 0 0 .778.328c.271.009.537-.07.759-.225.181-.127.346-.277.491-.445V16.5h1.042l-.011 6.188Zm4.232-5.334h-1.351v3.427c-.029.308.028.618.164.895.136.17.349.26.566.238.136.003.271-.019.398-.065.086-.03.168-.069.245-.116l.142.838a1.82 1.82 0 0 1-.308.164 1.643 1.643 0 0 1-.655.11 1.525 1.525 0 0 1-1.196-.445 2.189 2.189 0 0 1-.398-1.474v-3.568h-.747v-.696l.746-.155.116-1.726h.926v1.726h1.479l-.128.847Zm4.631-.18-2.495 4.6v.025h2.661l-.09.889h-3.927v-.67l2.573-4.638v-.022h-2.432v-.85h3.712l-.002.666Zm1.145 4.78a.656.656 0 0 1 .2-.522.693.693 0 0 1 .47-.174.734.734 0 0 1 .611.31c.18.284.264.618.238.953a1.908 1.908 0 0 1-.488 1.333 2.08 2.08 0 0 1-.483.393c-.165.098-.34.181-.521.246l-.218-.451c.247-.124.469-.292.655-.496.19-.245.29-.547.283-.857h-.038a.716.716 0 0 1-.502-.187.703.703 0 0 1-.204-.548h-.002Zm8.708.737V18.71a1.876 1.876 0 0 0-.263-1.128.95.95 0 0 0-.804-.341 1.247 1.247 0 0 0-.772.232 2.84 2.84 0 0 0-.491.451v4.767h-1.042v-6.184h.952v.696h.025c.046-.081.101-.156.164-.225.098-.109.211-.205.335-.283.154-.098.319-.178.491-.238.207-.072.424-.107.643-.103a2.15 2.15 0 0 1 .746.122c.22.079.415.215.566.393.168.206.29.445.36.702.093.347.137.705.128 1.065v4.059h-1.037Zm6.921 0h-.952v-.696h-.031a1.246 1.246 0 0 1-.164.225 1.668 1.668 0 0 1-.327.283 2.19 2.19 0 0 1-.483.238 1.826 1.826 0 0 1-.63.103c-.251.003-.5-.038-.736-.122a1.355 1.355 0 0 1-.56-.393 1.83 1.83 0 0 1-.353-.703 3.942 3.942 0 0 1-.122-1.065v-4.059h1.042v3.982c-.033.384.055.769.251 1.101a.92.92 0 0 0 .778.328c.271.009.537-.07.759-.225.181-.127.346-.277.491-.445v-4.741h1.035v6.188Zm3.927-3.35 2.122 3.35h-1.248l-1.737-2.886h-.425v2.886h-1.042v-9.11l1.042-.116v5.45h.438l1.659-2.409h1.235l-2.045 2.836Zm4.078 1.907a.977.977 0 0 0 .11.541c.093.112.235.17.38.155.08.002.16-.007.238-.025.051-.012.1-.03.148-.052l.09.773a2.174 2.174 0 0 1-.283.103c-.18.048-.367.07-.553.065a1.145 1.145 0 0 1-.849-.322 1.61 1.61 0 0 1-.322-1.146v-7.756l1.042-.116v7.78Zm5.866-2.654c0 .266-.008.496-.025.69a15.05 15.05 0 0 1-.052.509h-3.159a2.748 2.748 0 0 0 .47 1.611c.297.352.743.543 1.203.515.166.002.331-.02.491-.065a1.816 1.816 0 0 0 .65-.335 2.88 2.88 0 0 0 .164-.142l.386.737-.193.187a1.737 1.737 0 0 1-.348.246 2.488 2.488 0 0 1-.54.213 2.816 2.816 0 0 1-.759.09 2.74 2.74 0 0 1-1.048-.193 1.984 1.984 0 0 1-.798-.599 2.908 2.908 0 0 1-.508-1.031 5.47 5.47 0 0 1-.18-1.501 4.834 4.834 0 0 1 .183-1.43c.103-.358.276-.692.508-.983.2-.247.456-.443.746-.573.288-.125.599-.189.913-.187a1.767 1.767 0 0 1 1.391.56c.368.479.546 1.077.501 1.68l.005.002Zm-1.955-1.392a1.045 1.045 0 0 0-.888.464 2.54 2.54 0 0 0-.386 1.34h2.251c.011-.062.017-.124.02-.187.004-.081.007-.169.007-.264a1.679 1.679 0 0 0-.257-.998.863.863 0 0 0-.751-.355h.005Zm2.985 3.917c-.011-.313.06-.624.206-.901.134-.237.324-.439.553-.586.25-.158.528-.267.818-.322.328-.066.662-.098.997-.097h.322v-.593a1.603 1.603 0 0 0-.277-1.083 1.009 1.009 0 0 0-.778-.296 1.4 1.4 0 0 0-.772.2 4.602 4.602 0 0 0-.491.355l-.438-.696c.084-.082.172-.159.263-.232.122-.095.253-.178.392-.246a2.648 2.648 0 0 1 1.197-.27 1.868 1.868 0 0 1 1.441.528 2.46 2.46 0 0 1 .491 1.701v2.822c0 .266.008.526.025.78.008.171.025.341.052.509h-.991l-.038-.683h-.025a1.588 1.588 0 0 1-.155.264 1.27 1.27 0 0 1-.257.271c-.114.088-.239.16-.373.213a1.351 1.351 0 0 1-.515.09 1.633 1.633 0 0 1-1.178-.49 1.61 1.61 0 0 1-.348-.548 1.878 1.878 0 0 1-.128-.691h.006Zm1.865.838c.132.002.263-.02.386-.065.103-.038.2-.09.29-.155.078-.056.147-.124.206-.2a4.28 4.28 0 0 1 .148-.187v-1.366l-.335.013a2.39 2.39 0 0 0-1.132.258.806.806 0 0 0-.386.748c-.02.257.058.513.218.715a.779.779 0 0 0 .599.237l.006.002Zm6.341-4.535a.747.747 0 0 0-.164-.065 1.24 1.24 0 0 0-.348-.038 1.061 1.061 0 0 0-.765.264 1.55 1.55 0 0 0-.393.573v4.535h-1.05v-6.184h.952v.838h.025c.043-.123.098-.242.164-.355.069-.116.155-.221.257-.31.108-.093.232-.165.367-.213a1.49 1.49 0 0 1 .508-.077c.119-.003.238.01.353.038.09.026.161.047.212.065l-.118.929Zm4.837 1.173c0 .266-.008.496-.025.69a15.05 15.05 0 0 1-.052.509h-3.16a2.748 2.748 0 0 0 .47 1.611c.297.352.743.543 1.203.515.166.002.331-.02.491-.065a1.816 1.816 0 0 0 .65-.335 2.88 2.88 0 0 0 .164-.142l.386.737-.193.187a1.76 1.76 0 0 1-.347.246 2.488 2.488 0 0 1-.54.213 2.816 2.816 0 0 1-.759.09 2.74 2.74 0 0 1-1.048-.193 1.984 1.984 0 0 1-.798-.599 2.891 2.891 0 0 1-.508-1.031 5.47 5.47 0 0 1-.18-1.501 4.834 4.834 0 0 1 .183-1.43c.103-.358.276-.692.508-.983.2-.247.456-.443.746-.573.288-.125.599-.189.913-.187a1.767 1.767 0 0 1 1.391.56 2.45 2.45 0 0 1 .5 1.68l.006.002Zm-1.955-1.392a1.045 1.045 0 0 0-.888.464 2.54 2.54 0 0 0-.386 1.34h2.252c.011-.062.017-.124.02-.187.004-.081.007-.169.007-.264a1.672 1.672 0 0 0-.258-.998.865.865 0 0 0-.752-.355h.006Zm9.648-2.036a2.214 2.214 0 0 0-.173-.148 1.698 1.698 0 0 0-.308-.187 2.326 2.326 0 0 0-.998-.22 1.159 1.159 0 0 0-.875.31 1.01 1.01 0 0 0-.296.721c-.001.162.023.322.071.477.051.154.125.299.218.432.108.153.231.295.367.425.146.142.322.295.528.458l.72.593c.206.172.401.348.585.528.179.174.338.366.476.573a2.535 2.535 0 0 1 .431 1.448 2.214 2.214 0 0 1-.63 1.643 2.508 2.508 0 0 1-1.839.625 3.523 3.523 0 0 1-.843-.09 3.285 3.285 0 0 1-.637-.219 2.643 2.643 0 0 1-.72-.49l.45-.983c.051.051.128.12.232.206.117.096.242.182.373.258.157.091.323.164.495.219.202.063.413.093.624.09.366.024.727-.093 1.01-.328a1.03 1.03 0 0 0 .353-.78 1.793 1.793 0 0 0-.07-.515 1.836 1.836 0 0 0-.206-.445 2.452 2.452 0 0 0-.341-.418 6.167 6.167 0 0 0-.491-.438l-.72-.605a10.583 10.583 0 0 1-.655-.586 3.533 3.533 0 0 1-.483-.58 2.439 2.439 0 0 1-.303-.655 2.94 2.94 0 0 1-.103-.819c0-.275.055-.546.164-.798.104-.245.26-.465.457-.644a2.15 2.15 0 0 1 .714-.425c.303-.107.623-.16.945-.155a3.181 3.181 0 0 1 1.345.275c.135.059.263.135.38.225.094.078.167.132.218.164l-.465.858Zm3.036 7.524h-1.042v-6.184h1.042v6.184Zm-.515-7.679a.674.674 0 0 1-.515-.206.759.759 0 0 1-.193-.541.744.744 0 0 1 .193-.528.669.669 0 0 1 .515-.206.656.656 0 0 1 .502.206c.131.144.2.334.193.528a.757.757 0 0 1-.193.541.659.659 0 0 1-.507.206h.006Zm5.544 2.693a5.003 5.003 0 0 0-.122-.116 1.295 1.295 0 0 0-.212-.155 1.353 1.353 0 0 0-.717-.193 1.584 1.584 0 0 0-.623.122 1.263 1.263 0 0 0-.502.393c-.156.21-.27.448-.335.702a3.913 3.913 0 0 0-.122 1.05c-.007.385.03.77.11 1.146.054.262.156.512.302.737.116.174.279.313.47.4.193.084.401.125.611.123.253.017.505-.04.727-.164.126-.079.244-.17.353-.27l.425.721c-.058.066-.12.129-.187.187a1.6 1.6 0 0 1-.315.213 2.124 2.124 0 0 1-.47.174c-.208.05-.422.073-.637.07a2.74 2.74 0 0 1-.965-.164 1.92 1.92 0 0 1-.785-.554 2.781 2.781 0 0 1-.528-1.005 5.224 5.224 0 0 1-.193-1.533 4.32 4.32 0 0 1 .232-1.508c.129-.371.335-.712.605-.998.233-.243.516-.432.83-.554a2.56 2.56 0 0 1 .92-.174c.206-.003.411.019.611.065.156.037.307.092.45.164.111.056.215.125.308.206.081.073.148.135.2.187l-.441.729Zm4.901 4.986V18.71a1.876 1.876 0 0 0-.263-1.128.95.95 0 0 0-.804-.341 1.247 1.247 0 0 0-.772.232 2.84 2.84 0 0 0-.491.451v4.767h-1.042v-9.109l1.042-.116v3.672h.025c.051-.072.105-.141.164-.206.089-.099.19-.186.303-.258a1.99 1.99 0 0 1 1.12-.322c.486-.023.956.171 1.286.528a2.59 2.59 0 0 1 .476 1.752v4.059h-1.043Zm6.561-4.095c0 .266-.008.496-.025.69s-.034.363-.052.509h-3.151a2.748 2.748 0 0 0 .47 1.611c.297.352.743.543 1.203.515.166.002.331-.02.491-.065a1.816 1.816 0 0 0 .65-.335 2.88 2.88 0 0 0 .164-.142l.386.737-.193.187a1.76 1.76 0 0 1-.347.246 2.488 2.488 0 0 1-.54.213 2.816 2.816 0 0 1-.759.09 2.74 2.74 0 0 1-1.048-.193 1.984 1.984 0 0 1-.798-.599 2.891 2.891 0 0 1-.508-1.031 5.47 5.47 0 0 1-.18-1.501 4.801 4.801 0 0 1 .175-1.431c.103-.358.276-.692.508-.983.2-.247.456-.443.746-.573.288-.125.599-.189.913-.187a1.767 1.767 0 0 1 1.391.56c.368.479.546 1.077.501 1.68l.005.003Zm-1.955-1.392a1.045 1.045 0 0 0-.888.464 2.54 2.54 0 0 0-.386 1.34h2.252c.011-.062.017-.124.02-.187.004-.081.007-.169.007-.264a1.679 1.679 0 0 0-.257-.998.865.865 0 0 0-.752-.357l.005.002Zm6.058.219a.747.747 0 0 0-.164-.065 1.228 1.228 0 0 0-.347-.038 1.061 1.061 0 0 0-.765.264 1.55 1.55 0 0 0-.393.573v4.535h-1.042v-6.184h.952v.838h.025c.043-.123.098-.242.164-.355.069-.116.155-.221.257-.31.108-.093.232-.165.367-.213a1.49 1.49 0 0 1 .508-.077c.119-.003.238.01.353.038.09.026.161.047.212.065l-.128.929Zm4.399 5.27v-3.982a1.876 1.876 0 0 0-.263-1.128.95.95 0 0 0-.804-.341 1.247 1.247 0 0 0-.772.232 2.84 2.84 0 0 0-.491.451v4.767h-1.042v-9.11l1.042-.116v3.672h.025c.051-.072.105-.141.164-.206.088-.099.19-.186.302-.258a1.99 1.99 0 0 1 1.12-.322c.486-.023.956.171 1.286.528a2.59 2.59 0 0 1 .476 1.752v4.059l-1.042.002Zm6.561-4.095c0 .266-.008.496-.025.69s-.034.363-.052.509h-3.151a2.748 2.748 0 0 0 .47 1.611c.297.352.743.543 1.203.515.166.002.331-.02.491-.065a1.816 1.816 0 0 0 .65-.335 2.88 2.88 0 0 0 .164-.142l.386.737-.193.187a1.76 1.76 0 0 1-.347.246 2.488 2.488 0 0 1-.54.213 2.816 2.816 0 0 1-.759.09 2.74 2.74 0 0 1-1.048-.193 1.984 1.984 0 0 1-.798-.599 2.891 2.891 0 0 1-.508-1.031 5.47 5.47 0 0 1-.18-1.501 4.814 4.814 0 0 1 .175-1.433c.103-.358.276-.692.508-.983.2-.247.456-.443.746-.573.288-.125.599-.189.913-.187a1.767 1.767 0 0 1 1.391.56c.368.479.546 1.077.501 1.68l.005.005Zm-1.955-1.392a1.045 1.045 0 0 0-.888.464 2.54 2.54 0 0 0-.386 1.34h2.251c.011-.062.017-.124.02-.187.004-.081.007-.169.007-.264a1.679 1.679 0 0 0-.257-.998.868.868 0 0 0-.751-.359l.005.004Zm4.386 5.487h-1.042V16.51h1.036l.006 6.184Zm-.515-7.679a.674.674 0 0 1-.515-.206.759.759 0 0 1-.193-.541.744.744 0 0 1 .193-.528.669.669 0 0 1 .515-.206.656.656 0 0 1 .502.206.74.74 0 0 1 .193.528.757.757 0 0 1-.193.541.655.655 0 0 1-.506.204l.004.002Zm4.745 2.345h-1.351v3.427c-.029.308.028.618.164.895.136.17.349.26.566.238.136.003.271-.019.398-.065.086-.03.168-.069.245-.116l.142.838a1.82 1.82 0 0 1-.308.164 1.643 1.643 0 0 1-.655.11 1.525 1.525 0 0 1-1.196-.445 2.189 2.189 0 0 1-.398-1.474v-3.571h-.746v-.696l.746-.155.115-1.726h.926v1.726h1.479l-.128.85ZM47.733 35.684h-.952v-.696h-.025a1.246 1.246 0 0 1-.164.225 1.668 1.668 0 0 1-.327.283 2.19 2.19 0 0 1-.483.238 1.826 1.826 0 0 1-.63.103c-.251.004-.5-.038-.736-.122a1.355 1.355 0 0 1-.56-.393 1.83 1.83 0 0 1-.353-.703 3.942 3.942 0 0 1-.122-1.065v-4.059h1.035v3.982a1.86 1.86 0 0 0 .245 1.104.92.92 0 0 0 .778.328c.271.009.537-.07.759-.225.181-.127.346-.277.491-.445v-4.741h1.042v6.185Zm4.965 0v-3.982a1.876 1.876 0 0 0-.263-1.128.95.95 0 0 0-.804-.341 1.247 1.247 0 0 0-.772.232 2.84 2.84 0 0 0-.491.451v4.767h-1.043v-6.184h.952v.696h.029c.046-.08.101-.155.164-.223.098-.109.211-.205.335-.283.154-.098.319-.178.491-.238.207-.072.424-.107.643-.103a2.15 2.15 0 0 1 .746.122c.22.079.415.215.566.393.168.206.29.445.36.702.093.347.137.705.128 1.065v4.059l-1.042-.003Zm2.315-3.002a4.395 4.395 0 0 1 .245-1.571c.137-.38.351-.726.63-1.018.244-.25.544-.437.875-.548.315-.107.645-.162.978-.164.173-.002.345.013.515.045.124.023.244.06.36.11v-2.964l1.042-.116v9.225h-.952v-.655h-.025a1.435 1.435 0 0 1-.425.483 1.73 1.73 0 0 1-.45.232 1.873 1.873 0 0 1-.63.097 2.03 2.03 0 0 1-.83-.174 1.786 1.786 0 0 1-.688-.554 2.899 2.899 0 0 1-.47-.983 5.251 5.251 0 0 1-.175-1.444Zm2.444 2.229a1.353 1.353 0 0 0 .773-.229 1.467 1.467 0 0 0 .386-.38v-3.814a1.604 1.604 0 0 0-.327-.155 1.467 1.467 0 0 0-.47-.065 1.85 1.85 0 0 0-.675.122 1.325 1.325 0 0 0-.547.409c-.17.219-.294.47-.367.737a3.909 3.909 0 0 0-.135 1.108c-.007.362.03.723.11 1.076.056.249.158.485.302.696.112.161.262.292.438.38.16.076.336.114.513.113Zm12.131-8.117-2.882 8.89h-.887l-2.805-8.89h1.209l1.698 5.901c.094.328.178.641.251.941.064.245.105.495.122.748h.025c.018-.249.061-.496.128-.737.077-.296.163-.608.257-.934l1.764-5.918h1.118Zm4.284 4.793c0 .266-.008.496-.025.69s-.034.363-.052.509h-3.152a2.748 2.748 0 0 0 .47 1.611c.297.352.743.543 1.203.515.166.002.331-.02.491-.065a1.816 1.816 0 0 0 .65-.335 2.88 2.88 0 0 0 .164-.142l.386.737-.193.187a1.737 1.737 0 0 1-.348.246 2.488 2.488 0 0 1-.54.213 2.816 2.816 0 0 1-.759.09 2.74 2.74 0 0 1-1.048-.193 1.993 1.993 0 0 1-.798-.599 2.908 2.908 0 0 1-.508-1.031 5.47 5.47 0 0 1-.18-1.501 4.798 4.798 0 0 1 .187-1.424c.103-.358.276-.692.508-.983.2-.247.456-.443.746-.573.288-.125.599-.189.913-.187a1.767 1.767 0 0 1 1.391.56c.364.479.539 1.075.493 1.675h.002Zm-1.955-1.392a1.045 1.045 0 0 0-.888.464 2.54 2.54 0 0 0-.386 1.34h2.251c.011-.062.017-.124.02-.187.004-.081.007-.169.007-.264a1.679 1.679 0 0 0-.257-.998.865.865 0 0 0-.746-.354Zm6.058.219a.747.747 0 0 0-.164-.065 1.228 1.228 0 0 0-.347-.038 1.061 1.061 0 0 0-.765.264 1.55 1.55 0 0 0-.393.573v4.535H75.26v-6.184h.952v.838h.025c.043-.123.098-.242.164-.355.069-.116.155-.221.257-.31.108-.093.232-.165.367-.213a1.49 1.49 0 0 1 .508-.077c.119-.003.238.01.353.038.09.026.161.047.212.065l-.123.929Zm5.635 1.894a5.14 5.14 0 0 1-.232 1.662 2.919 2.919 0 0 1-.618 1.076 2.206 2.206 0 0 1-.9.58 3.41 3.41 0 0 1-1.093.174 3.024 3.024 0 0 1-1.184-.234 2.25 2.25 0 0 1-.367-.2 4.476 4.476 0 0 1-.225-.164v-8.626l1.042-.09v3.607h.025a1.625 1.625 0 0 1 .92-.671c.182-.053.37-.079.56-.077a1.817 1.817 0 0 1 1.511.715c.426.669.622 1.458.56 2.249Zm-1.081.129a3.123 3.123 0 0 0-.348-1.681 1.089 1.089 0 0 0-.952-.522 1.205 1.205 0 0 0-.753.206 2.785 2.785 0 0 0-.443.425v3.801c.098.063.201.118.308.164.147.059.305.087.463.082.235.002.468-.039.688-.123.215-.085.404-.226.547-.409.171-.228.294-.489.36-.766.094-.384.137-.779.129-1.174v-.002Zm5.12-2.023a.747.747 0 0 0-.164-.065 1.24 1.24 0 0 0-.348-.038 1.061 1.061 0 0 0-.765.264 1.55 1.55 0 0 0-.393.573v4.535h-1.042v-6.184h.952v.838h.025c.043-.123.098-.242.164-.355.069-.116.155-.221.257-.31.108-.093.232-.165.367-.213a1.49 1.49 0 0 1 .508-.077c.119-.003.238.01.353.038.09.026.161.047.212.065l-.126.929Zm.605 3.697c-.011-.313.06-.624.206-.901.134-.237.324-.439.553-.586.25-.158.528-.267.818-.322.328-.066.662-.098.997-.097h.322v-.595a1.603 1.603 0 0 0-.277-1.083 1.009 1.009 0 0 0-.778-.296 1.4 1.4 0 0 0-.772.2 4.602 4.602 0 0 0-.491.355l-.438-.696c.084-.082.172-.159.263-.232.122-.095.253-.178.392-.246a2.648 2.648 0 0 1 1.197-.27 1.868 1.868 0 0 1 1.441.528 2.46 2.46 0 0 1 .491 1.701v2.824c0 .266.008.526.025.78.008.171.025.341.052.509h-.992l-.038-.683H91.2a1.588 1.588 0 0 1-.155.264 1.27 1.27 0 0 1-.257.271c-.114.088-.239.16-.373.213a1.351 1.351 0 0 1-.515.09 1.633 1.633 0 0 1-1.178-.49 1.61 1.61 0 0 1-.348-.548 1.902 1.902 0 0 1-.122-.688v-.002Zm1.865.838c.132.002.263-.02.386-.065.103-.038.2-.09.29-.155.078-.056.147-.124.206-.2a4.28 4.28 0 0 1 .148-.187v-1.366l-.335.013a2.39 2.39 0 0 0-1.132.258.806.806 0 0 0-.386.748c-.02.257.058.513.218.715a.781.781 0 0 0 .605.24v-.002Zm7.95.737h-.952v-.696h-.026a1.246 1.246 0 0 1-.164.225 1.668 1.668 0 0 1-.327.283 2.19 2.19 0 0 1-.483.238 1.826 1.826 0 0 1-.63.103c-.251.004-.5-.038-.736-.122a1.355 1.355 0 0 1-.56-.393 1.83 1.83 0 0 1-.353-.703 3.942 3.942 0 0 1-.122-1.065v-4.059h1.042v3.982c-.033.384.055.769.251 1.101a.92.92 0 0 0 .778.328c.271.009.537-.07.759-.225.181-.127.346-.277.491-.445v-4.741h1.042l-.011 6.188Zm5.03-4.986a5.003 5.003 0 0 0-.122-.116 1.295 1.295 0 0 0-.212-.155 1.353 1.353 0 0 0-.717-.193 1.584 1.584 0 0 0-.623.122 1.263 1.263 0 0 0-.502.393c-.156.21-.27.448-.335.702a3.913 3.913 0 0 0-.122 1.05c-.007.385.03.77.11 1.146.054.262.157.512.302.737.116.174.279.313.47.4.193.084.401.125.611.123.253.017.505-.04.727-.164.126-.079.244-.17.353-.27l.425.721c-.058.066-.12.129-.187.187a1.6 1.6 0 0 1-.315.213 2.124 2.124 0 0 1-.47.174c-.208.05-.422.073-.637.07a2.74 2.74 0 0 1-.965-.164 1.913 1.913 0 0 1-.785-.554 2.781 2.781 0 0 1-.528-1.005 5.224 5.224 0 0 1-.193-1.533 4.32 4.32 0 0 1 .232-1.508c.129-.371.335-.712.605-.998.233-.243.516-.432.83-.554a2.56 2.56 0 0 1 .92-.174c.206-.003.411.019.611.065.156.037.307.092.45.164.111.056.215.125.308.206.081.073.148.135.2.187l-.441.729ZM108 35.686v-3.982a1.876 1.876 0 0 0-.263-1.128.95.95 0 0 0-.804-.341 1.247 1.247 0 0 0-.772.232 2.84 2.84 0 0 0-.491.451v4.767h-1.037v-9.11l1.042-.116v3.672h.025c.051-.072.105-.141.164-.206.088-.099.19-.186.302-.258a1.99 1.99 0 0 1 1.12-.322c.486-.023.956.171 1.286.528a2.59 2.59 0 0 1 .476 1.752v4.059l-1.047.002Zm6.561-4.095c0 .266-.008.496-.025.69a15.05 15.05 0 0 1-.052.509h-3.152a2.748 2.748 0 0 0 .47 1.611c.297.352.743.543 1.203.515.166.002.331-.02.491-.065a1.816 1.816 0 0 0 .65-.335 2.88 2.88 0 0 0 .164-.142l.386.737-.193.187a1.76 1.76 0 0 1-.347.246 2.488 2.488 0 0 1-.54.213 2.816 2.816 0 0 1-.759.09 2.74 2.74 0 0 1-1.048-.193 1.993 1.993 0 0 1-.798-.599 2.891 2.891 0 0 1-.508-1.031 5.47 5.47 0 0 1-.18-1.501 4.83 4.83 0 0 1 .187-1.424c.103-.358.276-.692.508-.983.2-.247.456-.443.746-.573.288-.125.599-.189.913-.187a1.767 1.767 0 0 1 1.391.56c.363.478.539 1.073.493 1.671v.004Zm-1.955-1.392a1.045 1.045 0 0 0-.888.464 2.54 2.54 0 0 0-.386 1.34h2.251c.011-.062.017-.124.02-.187.004-.081.007-.169.007-.264a1.679 1.679 0 0 0-.257-.998.867.867 0 0 0-.747-.358v.003Zm6.058.219a.747.747 0 0 0-.164-.065 1.228 1.228 0 0 0-.347-.038 1.061 1.061 0 0 0-.765.264 1.55 1.55 0 0 0-.393.573v4.535h-1.042v-6.184h.951v.838h.025c.043-.123.098-.242.164-.355.069-.116.155-.221.257-.31.108-.093.232-.165.367-.213a1.49 1.49 0 0 1 .508-.077c.119-.003.238.01.353.038.09.026.161.047.212.065l-.127.929Zm3.641.335a2.556 2.556 0 0 0-.373-.316 1.163 1.163 0 0 0-.708-.2.922.922 0 0 0-.63.193.595.595 0 0 0-.218.464.83.83 0 0 0 .2.573c.18.189.386.351.611.483l.386.232c.373.21.708.483.991.805.25.316.377.712.36 1.115.01.465-.174.913-.508 1.237a1.99 1.99 0 0 1-1.46.503 2.535 2.535 0 0 1-1.15-.257 1.627 1.627 0 0 1-.353-.225 2.465 2.465 0 0 1-.232-.225l.502-.825c.051.051.113.111.187.18a1.704 1.704 0 0 0 .61.364c.146.046.297.067.45.065.253.017.504-.056.708-.206a.632.632 0 0 0 .245-.503 1.114 1.114 0 0 0-.058-.38.864.864 0 0 0-.173-.29 1.655 1.655 0 0 0-.283-.246 8.548 8.548 0 0 0-.386-.258l-.386-.246a3.726 3.726 0 0 1-.907-.786 1.644 1.644 0 0 1-.327-1.056 1.478 1.478 0 0 1 .515-1.141c.169-.145.363-.259.573-.335.224-.082.462-.124.701-.122.208-.004.416.02.618.07a1.823 1.823 0 0 1 .752.399c.081.073.148.135.2.187l-.455.748Zm5.274-.052a5.003 5.003 0 0 0-.122-.116 1.295 1.295 0 0 0-.212-.155 1.353 1.353 0 0 0-.717-.193 1.588 1.588 0 0 0-.624.122 1.263 1.263 0 0 0-.502.393c-.156.21-.27.448-.335.702a3.913 3.913 0 0 0-.122 1.05c-.007.385.03.77.11 1.146.054.262.157.512.302.737.116.174.279.313.47.4.193.084.401.125.611.123.253.017.505-.04.727-.164.126-.079.244-.17.353-.27l.425.721c-.058.066-.12.129-.187.187a1.6 1.6 0 0 1-.315.213 2.124 2.124 0 0 1-.47.174c-.208.05-.422.073-.637.07a2.74 2.74 0 0 1-.965-.164 1.913 1.913 0 0 1-.785-.554 2.781 2.781 0 0 1-.528-1.005 5.224 5.224 0 0 1-.193-1.533 4.32 4.32 0 0 1 .232-1.508c.129-.371.335-.712.605-.998.233-.243.516-.432.83-.554a2.56 2.56 0 0 1 .92-.174c.206-.003.411.019.611.065.156.037.307.092.45.164.111.056.215.125.308.206.081.073.148.135.2.187l-.44.729Zm4.901 4.986v-3.982a1.876 1.876 0 0 0-.263-1.128.95.95 0 0 0-.804-.341 1.247 1.247 0 0 0-.772.232 2.84 2.84 0 0 0-.491.451v4.767h-1.042v-9.111l1.042-.116v3.672h.025c.051-.072.105-.141.164-.206.088-.099.19-.186.302-.258a1.99 1.99 0 0 1 1.12-.322c.486-.023.956.171 1.286.528a2.59 2.59 0 0 1 .476 1.752v4.059l-1.042.003Zm6.921 0h-.952v-.696h-.026a1.246 1.246 0 0 1-.164.225 1.668 1.668 0 0 1-.327.283 2.19 2.19 0 0 1-.483.238 1.826 1.826 0 0 1-.63.103c-.251.003-.5-.038-.736-.122a1.355 1.355 0 0 1-.56-.393 1.83 1.83 0 0 1-.353-.703 3.942 3.942 0 0 1-.122-1.065v-4.059h1.042v3.982c-.033.384.055.769.251 1.101a.92.92 0 0 0 .778.328c.271.009.537-.07.759-.225.181-.127.346-.277.491-.445v-4.741h1.042l-.011 6.188Zm4.232-5.334h-1.351v3.427c-.029.308.028.618.164.895.136.17.349.26.566.238.136.003.271-.019.398-.065.086-.03.168-.069.245-.116l.142.838a1.82 1.82 0 0 1-.308.164 1.643 1.643 0 0 1-.655.11 1.525 1.525 0 0 1-1.196-.445 2.189 2.189 0 0 1-.398-1.474v-3.569h-.746v-.696l.746-.155.115-1.726h.926v1.726h1.479l-.128.848Zm4.631-.18-2.495 4.6v.025h2.663l-.09.889h-3.927v-.67l2.572-4.638v-.025h-2.427v-.85h3.705v.669ZM15.234 8.984c.03-.248.046-.498.047-.748 0-.14 0-.302-.016-.486 2.154-.03 4.044-1.585 4.044-3.372a3.238 3.238 0 0 0-.926-2.006c.075-.016.15-.034.227-.052a3.625 3.625 0 0 1 1.211 2.485c0 2.145-2.14 4.135-4.582 4.176m-2.173-7.465a1.48 1.48 0 0 0-.269-.642c.007-.219.097-.427.448-.255-.191.195-.043.54-.043.54s.389-.181.308-.438c.578.138.164.915-.444.796m-.501 1.101a2.259 2.259 0 0 0-.45-.901 1.245 1.245 0 0 0-.929-.491c-.25.019-.494.08-.724.179a1.978 1.978 0 0 1-.227-.632c0-.157.265-.316.772-.316 1.116 0 1.781.504 1.781 1.351a2.025 2.025 0 0 1-.223.809m2.864 14.4a.663.663 0 0 1 .268.048c.449.917.989 1.787 1.611 2.596l.011.016.018-.004a12.046 12.046 0 0 1 1.727-.164h.016a.277.277 0 0 1 .201.05.308.308 0 0 1 .063.221 1.226 1.226 0 0 1-.151.555 1.522 1.522 0 0 0-1.185-.36c-.17.007-.338.035-.501.082l-.047.01-.053.014.34.341c.525.527.982.983.982 1.282a.762.762 0 0 1-.34.524 2.894 2.894 0 0 0-1.137-1.708l-.047-.034-.009.195c-.007.132-.02.328-.02.542 0 1.053-.107 1.214-.471 1.214a.652.652 0 0 1-.195-.036c.232-.347.333-.765.286-1.179v-.491c.001-.189.016-.377.044-.564l.011-.082-.057-.007a5.757 5.757 0 0 0-.73-.067 1.548 1.548 0 0 0-1.127.288.892.892 0 0 1-.342-.52c0-.219.136-.237.316-.237.098.003.195.012.292.027.415.062.834.09 1.253.082h.043l-.014-.043a8.442 8.442 0 0 0-1.43-2.176c.07-.252.137-.417.38-.417m-6.674 2.593-.014.043h.043a7.51 7.51 0 0 0 1.253-.082c.097-.015.194-.024.292-.027.178 0 .316.017.316.237a.901.901 0 0 1-.34.52 1.548 1.548 0 0 0-1.127-.288c-.245.007-.489.03-.731.067h-.027l-.03.004.01.082c.029.187.044.375.045.564v.491c-.047.415.055.833.287 1.179a.653.653 0 0 1-.196.036c-.366 0-.471-.164-.471-1.214 0-.212-.011-.409-.018-.542l-.011-.196-.045.036a2.888 2.888 0 0 0-1.136 1.708.762.762 0 0 1-.34-.524c0-.302.454-.756.982-1.282l.302-.302.039-.039-.1-.024a2.132 2.132 0 0 0-.502-.082 1.518 1.518 0 0 0-1.185.36 1.242 1.242 0 0 1-.151-.555.308.308 0 0 1 .063-.221.277.277 0 0 1 .201-.05h.015c.579.013 1.156.068 1.727.164l.018.004.011-.016a15.364 15.364 0 0 0 1.612-2.596.64.64 0 0 1 .267-.048c.245 0 .312.164.381.417a8.403 8.403 0 0 0-1.431 2.176M5.415 4.807a3.624 3.624 0 0 1 1.212-2.485c.076.019.151.036.227.052a3.235 3.235 0 0 0-.928 2.006c0 1.806 1.926 3.374 4.108 3.374a5.4 5.4 0 0 0-.021.485c0 .25.013.5.041.748-2.467-.016-4.638-2.02-4.638-4.176m16.545 3.804c1.107 1.753 1.973 1.72 3.281 1.72a9.373 9.373 0 0 1-2.139-2.438l-2.022-3.24a4.797 4.797 0 0 0-1.487-2.632c.214-.074.418-.175.606-.301-1.32 0-2.628-.672-3.348-.672a.677.677 0 0 0-.76.643c.029.409.448.819 1.227.819a4.11 4.11 0 0 0 .646-.064c.455.521.722 1.18.758 1.871 0 1.418-1.693 2.524-3.402 2.524-.097 0-.189-.004-.286-.011a3.85 3.85 0 0 1-.67-1.613c0-1.127.736-2.047.736-3.163a2.096 2.096 0 0 0-.467-1.303c.201-.165.368-.369.491-.599a1.212 1.212 0 0 1-.478.06c-.818 0-1.487-.213-2.138-.213-.372 0-.471.115-.471.224a.25.25 0 0 0 .016.101 2.213 2.213 0 0 0-.423-.118 3.299 3.299 0 0 0-.619-.055c-.791 0-1.073.332-1.073.617.055.365.194.712.404 1.015.264-.139.551-.228.848-.261.421 0 .794.4.992.875a3.707 3.707 0 0 1-.622.047 4.768 4.768 0 0 1-1.403-.276c-.01 0-.03.006-.03.023 0 .108.218.394.649.551.508.155 1.03.261 1.559.319a.679.679 0 0 1-.305.346.174.174 0 0 1-.101 0 7.051 7.051 0 0 1-1.509-.453c-.023-.009-.037.006-.037.029 0 .298.77.955 1.46 1.207a7.723 7.723 0 0 0-1.636 2.639 3.905 3.905 0 0 1-.286.011c-1.709 0-3.402-1.106-3.402-2.524.036-.691.302-1.35.758-1.871.213.038.43.06.646.064.775 0 1.194-.414 1.227-.819a.677.677 0 0 0-.761-.643c-.72 0-2.027.672-3.349.672.188.126.392.227.606.301A4.804 4.804 0 0 0 4.16 4.656l-2.022 3.24a9.358 9.358 0 0 1-2.14 2.438c1.309 0 2.175.029 3.282-1.72l1.037-1.661c.078.217.172.429.282.631l-2.062 3.303a9.333 9.333 0 0 1-2.145 2.431c1.309 0 2.175.03 3.282-1.72l1.774-2.846c.133.142.272.28.42.409l-2.504 4.013a9.28 9.28 0 0 1-2.139 2.436c1.309 0 2.175.031 3.281-1.72l2.441-3.914c.164.102.327.201.496.293l-2.981 4.776a9.296 9.296 0 0 1-2.139 2.436c1.309 0 2.175.03 3.282-1.72l3.068-4.918c.182.07.366.137.552.196l-3.466 5.557a9.36 9.36 0 0 1-2.138 2.436c1.309 0 2.175.03 3.281-1.72l3.695-5.922c.038.007.074.012.111.02.103.295.161.605.171.917 0 1.861-1.219 3.505-2.683 4.773.132.042.271.061.409.055.212.004.425-.009.635-.04-.41.803-.89 1.568-1.436 2.285a10.695 10.695 0 0 0-1.636-.154c-.478 0-.532.279-.532.53a1.26 1.26 0 0 0 .439.972c.088-.222.267-.518 1.145-.518.017 0 .047 0 .088.006-.257.287-1.064.941-1.064 1.467.044.47.42.839.89.873a1.07 1.07 0 0 1-.026-.293c.086-.49.331-.937.696-1.274a1.54 1.54 0 0 0-.004.215c0 1.008.091 1.474.73 1.474a1.02 1.02 0 0 0 .605-.224 1.376 1.376 0 0 1-.437-1.248c0-.147 0-.292.004-.491a2.726 2.726 0 0 0-.021-.424c.165-.025.332-.035.499-.031 0 0 .907-.073 1.127.4.245-.226.605-.545.605-.901 0-.233-.11-.496-.578-.496-.178 0-.736.108-1.2.108.339-.595.728-1.16 1.165-1.687.074.267.227.505.44.681a4.813 4.813 0 0 1 .853-2.293c.114.658.168 1.326.164 1.994 0 2.505-.601 4.356-1.878 4.709.183.32.514.527.882.55.467 0 .721-.53.982-1.029.135.369.508 1.271.882 1.271s.748-.901.883-1.271c.259.5.514 1.029.982 1.029.368-.023.699-.23.882-.55-1.276-.353-1.882-2.204-1.882-4.709-.005-.668.05-1.336.164-1.994.478.677.772 1.468.853 2.293.214-.176.368-.414.441-.681.436.528.826 1.092 1.165 1.687-.466 0-1.024-.108-1.2-.108-.467 0-.578.263-.578.496 0 .352.358.672.605.901.218-.473 1.127-.4 1.127-.4a2.95 2.95 0 0 1 .497.031 2.505 2.505 0 0 0-.021.424v.491c.077.463-.087.934-.437 1.248.172.138.384.217.605.224.639 0 .731-.464.731-1.474.003-.072 0-.143-.006-.215.365.337.61.785.696 1.274a1.03 1.03 0 0 1-.027.293.965.965 0 0 0 .886-.871c0-.527-.808-1.18-1.064-1.467.043 0 .073-.006.088-.006.883 0 1.064.296 1.15.518a1.26 1.26 0 0 0 .439-.972c0-.25-.054-.53-.532-.53a10.67 10.67 0 0 0-1.636.154 15.118 15.118 0 0 1-1.436-2.285c.21.031.423.044.635.04.139.006.277-.012.409-.055-1.464-1.269-2.683-2.912-2.683-4.773a3.08 3.08 0 0 1 .171-.917l.111-.02 3.695 5.922c1.106 1.752 1.974 1.72 3.281 1.72a9.36 9.36 0 0 1-2.138-2.436l-3.468-5.557c.188-.06.373-.127.555-.196l3.066 4.918c1.107 1.752 1.974 1.72 3.282 1.72a9.311 9.311 0 0 1-2.139-2.436l-2.979-4.776c.169-.093.334-.192.491-.293l2.442 3.914c1.107 1.753 1.973 1.72 3.281 1.72a9.277 9.277 0 0 1-2.139-2.436l-2.504-4.013c.147-.132.287-.271.418-.409l1.779 2.844c1.106 1.752 1.973 1.72 3.281 1.72a9.308 9.308 0 0 1-2.14-2.438l-2.06-3.303c.109-.203.204-.414.282-.631l1.038 1.669Zm13.626 14.077h-3.783V1.038h3.783v21.654Z"/><path d="M35.587 44.346h-3.783V22.692h3.783v21.654Z" fill="red"/><path d="M35.587 66h-3.783V44.346h3.783V66Z" fill="#fc0"/></svg>
